{"glyphs":{"0":{"ha":760,"x_min":57,"x_max":703,"o":"m 57 492 q 142 883 57 746 q 385 1021 226 1021 q 621 889 539 1021 q 703 511 703 757 q 618 117 703 254 q 374 -19 533 -19 q 138 113 219 -19 q 57 492 57 244 m 382 914 q 192 492 192 914 q 378 86 192 86 q 568 508 568 86 q 522 815 568 715 q 382 914 475 914 z "},"1":{"ha":760,"x_min":131,"x_max":633,"o":"m 131 888 l 356 1000 l 461 1000 l 461 108 l 633 108 l 632 0 l 156 1 l 158 107 l 329 107 l 329 868 l 161 792 l 131 888 z "},"2":{"ha":760,"x_min":75,"x_max":685,"o":"m 75 0 l 75 93 q 103 147 93 129 q 129 188 114 165 q 356 440 208 310 l 431 507 q 523 619 494 564 q 551 738 551 674 q 510 869 551 821 q 397 918 468 918 q 281 868 326 918 q 221 722 236 818 l 96 739 q 196 948 117 875 q 401 1021 275 1021 q 517 1000 465 1021 q 607 942 569 979 q 665 851 644 904 q 685 733 685 797 q 672 636 685 682 q 635 554 658 590 q 521 431 604 503 l 453 371 q 419 339 438 357 q 381 303 400 321 q 347 267 363 285 q 321 238 331 250 q 280 182 297 210 q 239 114 263 154 l 672 114 l 672 0 l 75 0 z "},"3":{"ha":760,"x_min":50,"x_max":668,"o":"m 50 161 l 156 219 q 239 128 193 157 q 347 99 285 99 q 481 151 431 99 q 532 290 532 203 q 474 431 532 382 q 308 479 417 479 q 275 478 289 479 q 235 475 261 478 l 235 576 q 269 572 257 574 q 297 571 282 571 q 456 617 401 571 q 511 753 511 664 q 471 868 511 825 q 364 911 431 911 q 269 885 310 911 q 192 803 228 860 l 94 868 q 371 1019 199 1019 q 481 1001 432 1019 q 566 947 531 982 q 621 863 601 913 q 640 754 640 814 q 598 610 640 668 q 476 526 556 553 q 617 444 567 510 q 668 279 668 378 q 645 159 668 214 q 581 65 622 104 q 483 3 540 25 q 357 -18 425 -18 q 247 -3 299 -18 q 154 39 194 11 q 100 89 124 60 q 50 161 76 118 z "},"4":{"ha":760,"x_min":49,"x_max":715,"o":"m 49 240 l 49 319 l 424 1001 l 589 1001 l 588 339 l 715 339 l 715 240 l 588 240 l 586 0 l 460 0 l 460 240 l 49 240 m 460 872 l 179 339 l 460 339 l 460 872 z "},"5":{"ha":760,"x_min":64,"x_max":678,"o":"m 64 188 l 179 243 q 357 90 239 90 q 494 158 444 90 q 544 342 544 225 q 499 506 544 444 q 374 567 453 567 q 276 535 318 567 q 210 446 233 504 l 96 469 l 149 1001 l 628 1001 l 628 896 l 260 896 l 231 594 q 315 653 272 635 q 408 672 357 672 q 518 649 468 672 q 603 581 568 625 q 658 477 639 538 q 678 344 678 417 q 656 194 678 261 q 592 80 633 128 q 493 6 551 32 q 363 -19 435 -19 q 250 -1 304 -19 q 158 49 196 17 q 104 108 125 76 q 64 188 83 139 z "},"6":{"ha":760,"x_min":71,"x_max":688,"o":"m 665 896 l 568 833 q 509 888 544 869 q 432 907 474 907 q 340 879 382 907 q 269 799 299 851 q 224 673 240 747 q 207 506 208 599 q 300 605 249 574 q 419 636 351 636 q 528 614 479 636 q 613 551 578 592 q 668 454 649 511 q 688 329 688 397 q 665 189 688 253 q 603 78 643 125 q 509 6 564 32 q 390 -19 454 -19 q 153 104 239 -19 q 90 247 110 164 q 71 447 71 329 q 97 683 71 578 q 169 863 122 789 q 282 978 215 938 q 432 1018 349 1018 q 563 988 506 1018 q 665 896 619 958 m 389 531 q 203 369 260 531 q 256 160 208 235 q 388 86 304 86 q 508 147 463 86 q 553 313 553 208 q 510 474 553 417 q 389 531 468 531 z "},"7":{"ha":760,"x_min":89,"x_max":669,"o":"m 89 1001 l 669 1001 l 669 918 l 311 0 l 167 0 l 533 893 l 90 893 l 89 1001 z "},"8":{"ha":760,"x_min":61,"x_max":699,"o":"m 276 526 q 96 757 96 590 q 118 860 96 813 q 179 944 140 908 q 272 999 218 979 q 388 1018 325 1018 q 500 999 449 1018 q 588 947 551 981 q 646 867 625 914 q 667 765 667 821 q 585 581 667 654 q 545 553 564 563 q 489 529 526 543 q 699 261 699 447 q 675 149 699 200 q 609 60 651 97 q 508 3 567 24 q 378 -17 449 -17 q 249 3 307 -17 q 149 58 190 22 q 84 145 107 94 q 61 258 61 196 q 276 526 61 450 m 222 771 q 262 660 222 704 q 385 588 301 615 q 540 769 540 642 q 496 880 540 836 q 382 924 451 924 q 267 881 311 924 q 222 771 222 838 m 563 264 q 521 381 563 335 q 383 468 479 428 q 239 380 282 428 q 196 261 196 332 q 247 135 196 183 q 381 88 297 88 q 512 136 461 88 q 563 264 563 185 z "},"9":{"ha":760,"x_min":72,"x_max":690,"o":"m 99 99 l 197 167 q 258 109 226 126 q 331 92 290 92 q 423 119 382 92 q 493 199 464 147 q 538 324 522 250 q 556 492 554 399 q 463 392 515 425 q 342 360 411 360 q 232 383 282 360 q 147 447 182 406 q 92 545 111 488 q 72 672 72 603 q 94 811 72 747 q 156 922 117 875 q 250 994 196 968 q 369 1019 304 1019 q 606 895 522 1019 q 690 547 690 771 q 666 308 690 414 q 596 130 642 203 q 484 19 550 57 q 335 -19 418 -19 q 206 8 261 -19 q 99 99 150 36 m 367 461 q 481 505 429 461 q 557 628 532 549 q 501 840 547 768 q 371 913 454 913 q 249 847 294 913 q 203 674 203 782 q 245 517 203 572 q 367 461 288 461 z "}," ":{"ha":403,"x_min":0,"x_max":0,"o":""},"$":{"ha":779,"x_min":19,"x_max":735,"o":"m 19 229 l 146 282 q 167 234 158 250 q 190 199 175 218 q 269 129 226 154 q 303 113 286 118 q 353 104 321 108 l 353 457 q 131 563 201 494 q 61 738 61 631 q 83 848 61 797 q 144 936 106 899 q 235 995 182 974 q 350 1017 288 1017 l 356 1017 l 354 1100 l 442 1100 l 442 1015 q 499 1005 479 1010 q 540 989 518 1000 q 606 949 576 972 q 660 893 636 925 q 686 849 676 869 q 708 792 696 829 l 592 743 q 577 785 583 771 q 560 815 571 799 q 509 874 535 856 q 440 904 483 893 l 440 571 q 508 547 479 558 q 563 525 538 536 q 735 282 735 453 q 714 168 735 219 q 654 77 693 117 q 559 13 615 38 q 433 -19 503 -11 l 433 -99 l 350 -99 l 350 -19 q 307 -15 325 -18 q 274 -8 289 -12 q 247 1 260 -4 q 218 13 233 6 q 85 113 140 47 q 65 137 74 125 q 50 162 57 149 q 35 191 43 175 q 19 229 28 207 m 593 271 q 551 368 593 326 q 436 429 510 410 l 436 104 q 550 156 507 111 q 593 271 593 201 m 353 600 l 354 911 q 247 860 288 904 q 206 757 206 817 q 244 658 206 699 q 353 600 282 618 z "},"%":{"ha":1013,"x_min":57,"x_max":956,"o":"m 57 758 q 72 863 57 815 q 115 945 88 911 q 181 999 142 979 q 265 1018 219 1018 q 350 999 311 1018 q 417 945 389 979 q 460 863 444 911 q 475 757 475 815 q 460 652 475 700 q 417 569 444 604 q 351 516 389 535 q 265 497 313 497 q 181 517 219 497 q 115 570 143 536 q 72 652 88 604 q 57 758 57 700 m 172 0 l 739 1001 l 842 1001 l 281 0 l 172 0 m 540 246 q 556 351 540 303 q 599 433 571 399 q 664 486 626 467 q 747 506 701 506 q 831 486 793 506 q 897 432 869 467 q 940 349 925 397 q 956 243 956 300 q 940 138 956 186 q 897 56 925 90 q 832 3 869 22 q 749 -17 794 -17 q 665 3 703 -17 q 599 57 626 22 q 556 140 571 92 q 540 246 540 189 m 265 929 q 194 885 219 929 q 169 758 169 840 q 195 631 169 676 q 265 586 221 586 q 337 631 311 586 q 363 757 363 675 q 337 884 363 839 q 265 929 311 929 m 747 419 q 654 246 654 419 q 749 71 654 71 q 842 243 842 71 q 747 419 842 419 z "},"&":{"ha":896,"x_min":42,"x_max":906,"o":"m 274 569 q 232 681 246 626 q 218 782 218 736 q 235 879 218 835 q 282 955 251 924 q 356 1003 313 986 q 450 1021 399 1021 q 535 1006 496 1021 q 602 963 574 990 q 646 897 631 935 q 661 813 661 858 q 436 529 661 632 q 460 484 450 503 q 480 449 471 465 q 498 418 489 433 q 519 386 507 403 q 543 351 532 367 q 567 319 554 335 q 594 284 579 303 q 629 240 608 265 q 653 275 643 260 q 670 303 663 290 q 683 328 678 315 q 696 357 689 342 q 706 383 701 371 q 715 410 711 396 q 723 440 719 424 q 731 478 726 456 l 850 464 q 838 416 843 436 q 826 379 832 396 q 813 347 819 363 q 799 313 807 331 q 782 277 790 293 q 763 245 774 261 q 740 211 753 229 q 708 169 726 193 q 860 99 783 99 q 906 104 878 99 l 903 -3 q 863 -12 878 -10 q 833 -14 847 -14 q 693 22 761 -14 q 657 45 672 33 q 615 81 642 57 q 496 3 556 26 q 357 -21 436 -21 q 231 1 289 -21 q 131 63 174 24 q 65 155 89 101 q 42 271 42 208 q 97 441 42 369 q 274 569 153 513 m 344 790 q 356 705 344 750 q 393 613 368 660 q 551 813 551 683 q 524 897 551 865 q 450 929 496 929 q 374 891 403 929 q 344 790 344 853 m 414 317 q 390 353 400 336 q 368 388 379 369 q 345 428 357 406 q 318 479 333 450 q 172 279 172 406 q 188 203 172 238 q 228 142 203 168 q 290 101 254 115 q 368 86 326 86 q 440 98 404 86 q 503 129 475 110 q 517 142 511 136 q 533 160 522 149 q 495 206 511 186 q 465 244 479 226 q 440 278 451 261 q 414 317 428 296 z "},"'":{"ha":246,"x_min":44,"x_max":196,"o":"m 44 608 l 99 829 l 57 829 l 57 1001 l 196 1001 l 196 833 l 90 608 l 44 608 z "},"(":{"ha":331,"x_min":96,"x_max":311,"o":"m 247 -197 q 172 -124 200 -160 q 124 -43 143 -87 q 108 -4 114 -21 q 100 35 103 13 q 97 94 97 58 q 96 189 96 129 l 96 488 l 96 785 q 97 869 96 833 q 102 931 99 904 q 110 978 106 957 q 124 1018 115 999 q 171 1099 142 1063 q 249 1172 200 1135 l 311 1094 q 259 1034 279 1063 q 231 978 239 1006 q 218 897 222 951 q 214 781 214 843 l 214 488 l 214 188 q 219 71 214 126 q 231 -8 224 15 q 260 -67 240 -39 q 311 -126 279 -94 l 247 -197 z "},")":{"ha":335,"x_min":18,"x_max":240,"o":"m 18 -126 q 44 -101 35 -111 q 63 -79 53 -92 q 86 -45 76 -61 q 101 -12 96 -29 q 110 27 107 6 q 114 81 113 49 l 117 154 l 118 186 l 118 488 l 117 790 q 116 860 117 831 q 114 910 115 889 q 110 948 113 932 q 103 978 107 964 q 74 1039 92 1010 q 24 1104 56 1068 l 88 1175 q 203 1038 165 1107 q 239 890 240 969 l 238 783 l 238 488 l 238 190 q 236 104 238 139 q 232 44 235 69 q 224 -1 229 18 q 210 -40 218 -19 q 149 -136 189 -89 q 120 -166 133 -154 q 81 -199 107 -178 l 18 -126 z "},"*":{"ha":572,"x_min":51,"x_max":521,"o":"m 51 688 l 217 767 l 53 850 l 103 933 l 253 832 l 239 1003 l 333 1001 l 319 832 l 474 933 l 519 850 l 356 767 l 521 688 l 474 604 l 319 707 l 332 521 l 242 518 l 253 706 l 100 604 l 51 688 z "},"+":{"ha":760,"x_min":58,"x_max":701,"o":"m 58 449 l 58 564 l 321 564 l 321 829 l 439 829 l 439 567 l 701 567 l 701 449 l 438 449 l 438 183 l 321 183 l 321 449 l 58 449 z "},",":{"ha":242,"x_min":44,"x_max":192,"o":"m 44 -222 l 96 0 l 53 0 l 53 171 l 192 171 l 192 4 l 93 -222 l 44 -222 z "},"-":{"ha":499,"x_min":44,"x_max":453,"o":"m 44 326 l 44 446 l 453 446 l 453 326 l 44 326 z "},".":{"ha":238,"x_min":50,"x_max":186,"o":"m 50 0 l 50 169 l 186 169 l 186 0 l 50 0 z "},"/":{"ha":668,"x_min":25,"x_max":644,"o":"m 25 0 l 536 1001 l 644 1001 l 132 0 l 25 0 z "},":":{"ha":265,"x_min":78,"x_max":217,"o":"m 78 0 l 78 169 l 215 169 l 215 0 l 78 0 m 79 444 l 79 618 l 217 618 l 217 444 l 79 444 z "},";":{"ha":269,"x_min":72,"x_max":219,"o":"m 72 -222 l 125 0 l 81 0 l 81 171 l 219 171 l 219 4 l 117 -222 l 72 -222 m 81 443 l 81 618 l 219 618 l 219 443 l 81 443 z "},"<":{"ha":367,"x_min":43,"x_max":322,"o":"m 43 388 l 246 693 l 317 681 l 179 389 l 322 97 l 247 82 l 43 388 z "},"=":{"ha":760,"x_min":43,"x_max":715,"o":"m 43 558 l 43 663 l 715 663 l 715 558 l 43 558 m 43 356 l 43 463 l 715 463 l 715 356 l 43 356 z "},">":{"ha":363,"x_min":43,"x_max":318,"o":"m 43 96 l 188 389 l 44 682 l 118 696 l 318 388 l 115 82 l 43 96 z "},"?":{"ha":492,"x_min":4,"x_max":461,"o":"m 108 0 l 108 175 l 244 175 l 244 0 l 108 0 m 4 867 q 97 981 39 942 q 235 1021 156 1021 q 325 1003 283 1021 q 397 956 367 986 q 444 885 426 926 q 461 793 461 843 q 451 716 461 754 q 421 646 440 678 q 407 624 414 635 q 390 599 400 613 q 365 567 379 586 q 328 521 350 549 q 294 479 308 497 q 271 446 281 461 q 255 417 261 431 q 244 390 249 404 q 233 338 238 369 q 229 274 229 306 l 229 253 l 119 253 l 119 283 q 124 361 119 322 q 136 424 129 400 q 169 495 146 457 q 229 581 192 533 l 278 642 q 338 790 338 718 q 308 881 338 846 q 229 915 278 915 q 106 814 149 915 l 4 867 z "},"@":{"ha":1168,"x_min":72,"x_max":1019,"o":"m 631 319 q 619 292 626 304 q 603 269 613 281 q 421 228 526 181 q 339 313 369 251 q 314 475 308 374 q 316 499 315 486 q 319 524 317 511 q 353 644 331 590 q 413 739 376 697 q 488 800 449 781 q 565 819 528 819 q 634 800 603 819 q 683 746 665 781 q 687 739 686 743 q 690 732 688 735 l 703 811 l 771 810 l 718 511 l 699 390 q 701 304 690 338 q 731 267 708 279 q 779 265 754 256 q 815 285 799 272 q 858 329 831 297 q 901 404 882 357 q 931 515 921 451 q 920 707 946 621 q 838 851 894 793 q 700 936 782 910 q 521 949 618 963 q 370 893 439 936 q 253 783 301 850 q 180 628 204 715 q 165 444 156 542 q 171 406 168 425 q 179 367 174 386 q 272 183 207 258 q 423 72 338 107 q 606 44 508 36 q 799 110 704 51 q 867 160 832 129 q 942 239 910 197 l 969 189 q 953 168 961 178 q 935 149 944 158 q 760 21 851 61 q 565 -19 669 -19 q 367 22 458 -19 q 208 138 275 64 q 107 314 142 213 q 81 535 72 415 q 111 685 86 615 q 179 814 136 756 q 333 954 244 901 q 521 1018 422 1007 q 733 997 636 1031 q 896 892 831 963 q 990 720 961 821 q 1000 501 1019 619 q 965 381 989 433 q 910 290 942 328 q 844 230 879 251 q 772 203 808 208 q 713 206 740 199 q 667 230 686 214 q 638 269 647 246 q 631 319 628 293 m 394 404 q 401 354 396 375 q 413 318 406 333 q 440 285 422 297 q 477 269 457 272 q 518 272 497 265 q 556 294 539 278 q 574 314 565 304 q 589 337 582 324 q 603 369 596 350 q 621 414 611 388 q 633 457 626 429 q 646 518 639 485 l 649 532 l 658 590 q 663 637 663 617 q 660 672 663 657 q 643 716 656 697 q 613 745 631 735 q 574 757 594 756 q 532 750 553 758 q 499 731 514 743 q 471 702 485 719 q 445 658 457 685 q 421 596 433 632 q 410 564 415 581 q 403 528 406 547 q 394 461 396 493 q 394 404 393 429 z "},"A":{"ha":757,"x_min":-14,"x_max":771,"o":"m -14 0 l 297 1001 l 461 1001 l 771 0 l 629 0 l 547 276 l 208 276 l 128 0 l -14 0 m 347 772 l 240 389 l 517 389 l 408 772 q 399 805 404 788 q 390 840 393 822 q 384 873 386 860 q 378 914 382 886 q 371 874 374 889 q 365 840 368 860 q 356 806 360 821 q 347 772 353 790 z "},"B":{"ha":832,"x_min":96,"x_max":783,"o":"m 96 0 l 96 1001 l 444 1001 q 558 993 510 1001 q 704 910 650 975 q 758 754 758 846 q 713 608 758 667 q 579 525 668 550 q 731 441 679 504 q 783 278 783 378 q 703 74 783 147 q 478 0 622 0 l 96 0 m 231 889 l 231 575 l 414 575 q 512 585 476 575 q 574 617 547 594 q 622 736 622 661 q 428 889 622 889 l 231 889 m 231 463 l 231 111 l 440 111 q 643 285 643 111 q 605 404 643 358 q 500 460 567 450 q 467 463 488 463 q 414 463 446 463 l 231 463 z "},"C":{"ha":847,"x_min":57,"x_max":803,"o":"m 793 692 l 663 679 q 596 858 649 797 q 456 919 543 919 q 350 890 397 919 q 271 806 303 861 q 222 672 239 750 q 204 493 204 593 q 268 194 204 297 q 450 90 332 90 q 668 332 626 90 l 803 310 q 683 63 772 146 q 447 -19 593 -19 q 283 15 356 -19 q 160 114 210 49 q 83 272 110 179 q 57 485 57 365 q 85 706 57 607 q 164 876 113 806 q 288 984 215 946 q 450 1022 360 1022 q 604 988 533 1022 q 719 892 675 954 q 767 804 750 851 q 793 692 785 757 z "},"D":{"ha":874,"x_min":96,"x_max":817,"o":"m 96 0 l 96 1001 l 353 1001 q 445 997 403 1001 q 524 983 488 992 q 741 823 665 949 q 817 494 817 697 q 705 128 817 257 q 386 0 593 0 l 96 0 m 231 888 l 231 113 l 367 113 q 672 496 672 113 q 367 888 672 888 l 231 888 z "},"E":{"ha":736,"x_min":96,"x_max":715,"o":"m 96 0 l 96 1001 l 699 1001 l 699 888 l 231 888 l 231 571 l 572 571 l 572 458 l 231 458 l 231 114 l 715 114 l 715 0 l 96 0 z "},"F":{"ha":665,"x_min":96,"x_max":692,"o":"m 96 0 l 96 1001 l 692 1001 l 692 889 l 229 889 l 229 574 l 572 574 l 572 461 l 231 461 l 231 0 l 96 0 z "},"G":{"ha":893,"x_min":57,"x_max":807,"o":"m 801 710 l 665 688 q 598 856 653 796 q 456 915 543 915 q 269 805 335 915 q 203 493 203 694 q 268 191 203 294 q 457 88 333 88 q 531 100 496 88 q 594 135 567 113 q 641 189 622 158 q 667 256 660 219 q 672 308 669 275 q 675 376 674 342 l 458 376 l 458 479 l 807 479 l 807 0 l 707 0 l 700 125 q 594 15 657 49 q 438 -19 532 -19 q 280 16 350 -19 q 160 117 210 51 q 84 276 111 183 q 57 483 57 368 q 85 706 57 607 q 166 876 114 806 q 292 983 218 946 q 458 1021 367 1021 q 686 941 599 1021 q 801 710 774 861 z "},"H":{"ha":901,"x_min":96,"x_max":804,"o":"m 96 0 l 96 1001 l 231 1001 l 231 576 l 669 576 l 669 1001 l 804 1001 l 804 0 l 669 0 l 669 464 l 233 464 l 233 0 l 96 0 z "},"I":{"ha":329,"x_min":96,"x_max":231,"o":"m 96 0 l 96 1001 l 231 1001 l 231 0 l 96 0 z "},"J":{"ha":606,"x_min":-7,"x_max":508,"o":"m -7 283 l 126 283 l 126 260 q 254 90 126 90 q 314 105 288 90 q 354 146 340 119 q 369 197 365 167 q 374 281 374 228 l 374 1001 l 508 1001 l 508 279 q 506 228 508 254 q 501 182 504 203 q 422 33 488 86 q 253 -19 357 -19 q 61 54 129 -19 q -7 261 -7 128 l -7 283 z "},"K":{"ha":794,"x_min":96,"x_max":814,"o":"m 96 0 l 96 1001 l 229 1001 l 229 525 l 611 1001 l 769 1001 l 461 622 l 814 0 l 660 0 l 374 518 l 231 346 l 231 0 l 96 0 z "},"L":{"ha":661,"x_min":96,"x_max":686,"o":"m 96 0 l 96 1001 l 231 1001 l 231 113 l 686 113 l 686 0 l 96 0 z "},"M":{"ha":1060,"x_min":99,"x_max":963,"o":"m 99 0 l 99 1001 l 279 1001 l 501 443 q 510 417 507 431 q 518 386 514 403 q 525 353 522 367 q 532 313 528 339 q 535 349 533 333 q 540 378 536 364 q 548 408 543 393 q 561 443 553 424 l 783 1001 l 963 1001 l 963 0 l 831 0 l 831 729 q 831 752 831 736 q 835 796 832 768 q 838 827 838 815 q 840 846 839 839 q 844 881 840 857 q 837 857 840 867 q 830 838 833 847 q 823 820 826 829 q 815 799 819 811 q 802 763 807 778 q 792 736 797 749 l 544 115 l 515 114 l 267 735 q 258 760 264 743 q 246 797 253 776 q 233 836 239 821 q 219 882 228 851 q 228 791 225 833 q 231 733 231 749 l 231 0 l 99 0 z "},"N":{"ha":922,"x_min":96,"x_max":825,"o":"m 96 0 l 96 1001 l 269 1001 l 638 313 q 653 285 646 297 q 667 257 660 272 q 677 235 672 244 q 687 215 682 225 q 697 191 692 204 q 710 161 703 178 q 699 204 703 186 q 694 239 696 222 q 692 275 693 256 q 692 325 692 294 l 692 1001 l 825 1001 l 825 0 l 679 0 l 289 725 q 272 756 279 743 q 258 783 265 769 q 240 824 247 806 q 217 876 232 843 q 224 821 222 840 q 228 778 226 801 q 229 746 229 763 q 229 711 229 729 l 229 0 l 96 0 z "},"O":{"ha":918,"x_min":57,"x_max":860,"o":"m 57 500 q 85 716 57 619 q 167 881 114 813 q 294 985 219 949 q 460 1022 368 1022 q 625 985 551 1022 q 751 881 699 949 q 831 716 803 813 q 860 500 860 619 q 831 285 860 381 q 751 121 803 189 q 625 16 699 53 q 460 -21 551 -21 q 294 16 368 -21 q 167 121 219 53 q 85 285 114 189 q 57 500 57 381 m 460 913 q 354 884 401 913 q 275 802 307 856 q 226 672 243 749 q 208 500 208 596 q 226 328 208 404 q 276 199 243 251 q 355 117 308 146 q 460 89 401 89 q 564 117 518 89 q 642 199 610 146 q 691 328 674 253 q 708 500 708 404 q 691 672 708 596 q 642 802 674 749 q 564 884 610 856 q 460 913 518 913 z "},"P":{"ha":749,"x_min":96,"x_max":740,"o":"m 96 0 l 96 1001 l 418 1001 q 542 992 494 1001 q 688 899 635 972 q 740 717 740 825 q 715 585 740 643 q 643 489 690 526 q 544 440 603 456 q 401 425 486 425 l 231 425 l 231 0 l 96 0 m 231 889 l 231 539 l 392 539 q 554 580 504 539 q 604 715 604 621 q 573 828 604 785 q 485 882 542 871 q 445 887 468 885 q 392 889 422 889 l 231 889 z "},"Q":{"ha":915,"x_min":57,"x_max":860,"o":"m 531 -17 l 531 -103 q 533 -131 531 -125 q 542 -146 535 -137 q 558 -155 549 -151 q 582 -158 568 -158 l 710 -158 l 710 -262 l 533 -262 q 479 -256 500 -262 q 439 -236 458 -250 q 410 -201 417 -219 q 403 -140 403 -182 l 403 -18 q 343 -5 364 -11 q 297 14 322 1 q 119 196 182 71 q 57 500 57 321 q 85 716 57 619 q 166 881 114 813 q 292 985 218 949 q 458 1022 367 1022 q 624 985 550 1022 q 751 881 699 949 q 831 716 803 813 q 860 501 860 619 q 831 288 860 383 q 747 118 803 193 q 618 14 700 56 q 581 -2 599 4 q 531 -17 563 -8 m 458 913 q 353 884 400 913 q 274 802 307 856 q 224 672 242 749 q 207 500 207 596 q 224 328 207 404 q 274 199 242 251 q 353 117 307 146 q 458 89 400 89 q 563 117 517 89 q 641 199 608 146 q 691 328 674 253 q 708 500 708 404 q 691 672 708 596 q 641 802 674 749 q 563 884 608 856 q 458 913 517 913 z "},"R":{"ha":807,"x_min":96,"x_max":781,"o":"m 96 0 l 96 1001 l 424 1001 q 488 999 458 1001 q 540 994 517 997 q 699 906 640 979 q 758 726 758 833 q 737 611 758 664 q 678 524 715 558 q 557 464 636 489 l 781 0 l 631 0 l 431 440 l 231 440 l 231 0 l 96 0 m 231 889 l 231 551 l 400 551 q 506 560 467 551 q 572 593 546 569 q 624 721 624 640 q 590 832 624 789 q 497 885 556 875 q 458 888 481 888 q 410 889 436 889 l 231 889 z "},"S":{"ha":778,"x_min":19,"x_max":733,"o":"m 19 229 l 143 282 q 393 96 215 96 q 538 143 483 96 q 592 267 592 190 q 538 382 592 338 q 512 399 525 392 q 478 415 499 407 q 429 433 458 424 q 357 456 400 443 q 305 472 326 465 q 267 483 283 478 q 238 494 251 489 q 210 508 225 500 q 61 738 61 585 q 85 852 61 800 q 151 942 108 904 q 251 1001 193 981 q 381 1022 310 1022 q 467 1013 425 1022 q 540 989 508 1004 q 658 892 611 956 q 684 849 674 869 q 707 792 694 829 l 593 744 q 512 875 567 831 q 376 919 457 919 q 247 874 297 919 q 196 758 196 829 q 236 658 196 699 q 260 638 247 647 q 290 622 272 629 q 310 613 300 617 q 335 603 321 608 q 368 591 349 597 q 418 575 388 585 q 467 560 447 567 q 503 547 488 553 q 533 535 519 540 q 561 524 546 529 q 733 281 733 451 q 708 158 733 214 q 638 63 683 103 q 528 1 592 24 q 389 -21 465 -21 q 217 12 290 -21 q 85 113 143 44 q 65 137 74 125 q 50 162 57 149 q 35 191 43 175 q 19 229 28 207 z "},"T":{"ha":654,"x_min":-25,"x_max":679,"o":"m -25 886 l -25 1001 l 679 1001 l 679 888 l 394 888 l 394 0 l 260 0 l 260 886 l -25 886 z "},"U":{"ha":890,"x_min":96,"x_max":793,"o":"m 793 1001 l 793 376 q 783 229 793 276 q 743 126 772 172 q 670 48 714 81 q 569 -3 626 15 q 444 -21 511 -21 q 292 8 361 -21 q 175 89 222 36 q 136 141 151 115 q 112 199 121 167 q 99 274 103 231 q 96 376 96 317 l 96 1001 l 233 1001 l 233 382 q 234 313 233 340 q 238 265 235 285 q 304 140 249 186 q 444 93 360 93 q 614 168 556 93 q 637 203 628 186 q 651 244 646 221 q 657 301 656 268 q 658 382 658 333 l 658 1001 l 793 1001 z "},"V":{"ha":704,"x_min":-22,"x_max":726,"o":"m -22 1001 l 118 1001 l 317 308 l 333 254 q 344 208 340 231 q 354 143 349 185 q 365 211 361 189 q 375 253 369 233 l 392 308 l 592 1001 l 726 1001 l 424 0 l 281 0 l -22 1001 z "},"W":{"ha":1094,"x_min":-3,"x_max":1097,"o":"m -3 1001 l 135 1001 l 272 363 q 280 322 276 343 q 286 276 283 301 q 292 231 290 250 q 297 179 294 213 q 312 286 304 236 q 326 360 319 336 l 482 1001 l 618 1001 l 769 360 q 785 282 776 329 q 800 178 793 235 q 804 232 803 213 q 810 276 806 251 q 817 320 813 300 q 826 363 821 340 l 964 1001 l 1097 1001 l 868 0 l 731 0 l 574 649 q 565 689 569 667 q 558 738 561 711 q 552 785 554 764 q 547 844 550 806 q 542 785 544 806 q 535 738 539 764 q 518 649 528 688 l 358 0 l 224 0 l -3 1001 z "},"X":{"ha":774,"x_min":17,"x_max":763,"o":"m 17 0 l 315 518 l 33 1001 l 188 1001 l 349 715 q 365 684 358 697 q 377 658 372 671 q 385 632 382 646 q 393 599 389 618 q 401 631 397 618 q 409 656 404 644 q 421 681 414 668 q 439 715 428 694 l 599 1001 l 749 1001 l 467 522 l 763 0 l 608 0 l 433 321 q 415 354 418 347 q 408 368 411 361 q 399 395 403 382 q 389 436 394 408 q 379 395 383 408 q 369 368 375 382 q 361 351 367 361 q 344 321 356 340 l 167 0 l 17 0 z "},"Y":{"ha":708,"x_min":-33,"x_max":740,"o":"m -33 1001 l 115 1001 l 313 640 q 329 607 322 621 q 340 581 336 593 q 347 554 344 568 q 353 519 350 540 q 358 554 356 539 q 365 583 361 569 q 376 610 369 596 q 393 640 383 624 l 597 1001 l 740 1001 l 418 429 l 418 0 l 282 0 l 282 429 l -33 1001 z "},"Z":{"ha":717,"x_min":29,"x_max":690,"o":"m 29 0 l 29 96 l 482 828 q 513 872 499 856 q 554 908 528 889 q 494 893 519 897 q 444 889 469 889 l 61 889 l 61 1001 l 683 1001 l 683 906 l 228 171 q 160 90 203 132 q 216 105 190 101 q 267 108 242 108 l 690 108 l 690 0 l 29 0 z "},"[":{"ha":339,"x_min":96,"x_max":332,"o":"m 96 -149 l 96 1108 l 332 1108 l 332 1014 l 219 1014 l 219 -54 l 332 -54 l 332 -149 l 96 -149 z "},"\\":{"ha":446,"x_min":65,"x_max":347,"o":"m 65 1000 l 171 1000 l 347 0 l 240 0 l 65 1000 z "},"]":{"ha":339,"x_min":7,"x_max":243,"o":"m 7 -149 l 7 -54 l 119 -54 l 119 1014 l 7 1014 l 7 1108 l 243 1108 l 243 -149 l 7 -149 z "},"^":{"ha":419,"x_min":0,"x_max":419,"o":"m 0 833 l 99 1049 l 318 1049 l 419 833 l 311 833 l 211 1033 l 113 833 l 0 833 z "},"_":{"ha":682,"x_min":65,"x_max":565,"o":"m 65 -42 l 65 0 l 565 0 l 565 -42 l 65 -42 z "},"`":{"ha":290,"x_min":3,"x_max":226,"o":"m 3 1050 l 126 1050 l 226 835 l 104 835 l 3 1050 z "},"a":{"ha":710,"x_min":49,"x_max":626,"o":"m 489 496 l 489 564 q 360 688 489 688 q 261 657 301 688 q 192 560 221 626 l 82 610 q 367 790 176 790 q 470 774 424 790 q 553 728 517 757 q 601 659 586 699 q 615 554 615 619 l 615 164 q 616 101 615 125 q 618 60 617 76 q 622 35 619 47 q 626 0 624 24 l 507 0 l 494 107 q 387 10 443 40 q 263 -19 331 -19 q 176 -4 215 -19 q 108 39 136 11 q 65 105 81 67 q 49 189 49 143 q 107 339 49 282 q 292 432 165 396 l 375 456 q 430 472 404 464 q 489 496 456 481 m 489 229 l 489 403 q 469 393 478 397 q 450 385 460 389 q 428 378 440 382 q 400 369 417 375 l 335 349 q 211 286 249 321 q 174 193 174 251 q 206 108 174 140 q 292 76 239 76 q 422 129 361 76 q 471 184 453 157 q 489 229 489 211 z "},"b":{"ha":761,"x_min":89,"x_max":704,"o":"m 89 0 q 93 45 92 29 q 96 76 94 61 q 97 110 96 89 q 97 183 97 131 l 97 1058 l 225 1058 l 225 693 q 422 792 307 792 q 538 763 486 792 q 627 683 590 735 q 684 557 664 631 q 704 393 704 483 q 684 222 704 299 q 626 92 664 146 q 535 10 589 39 q 415 -19 482 -19 q 322 -1 367 -19 q 249 50 278 17 q 237 65 242 57 q 224 88 232 72 l 201 0 l 89 0 m 225 589 l 225 200 q 296 114 253 146 q 388 82 339 82 q 522 165 474 82 q 569 394 569 247 q 523 613 569 536 q 392 690 476 690 q 344 682 368 690 q 297 660 319 674 q 255 628 274 647 q 225 589 236 610 z "},"c":{"ha":686,"x_min":57,"x_max":651,"o":"m 642 558 l 525 529 q 371 690 488 690 q 238 608 286 690 q 189 378 189 525 q 236 159 189 236 q 369 82 283 82 q 443 99 410 82 q 496 147 476 117 q 517 188 507 167 q 538 239 526 208 l 651 199 q 368 -21 579 -21 q 238 6 296 -21 q 140 85 181 33 q 78 208 100 136 q 57 372 57 281 q 79 546 57 468 q 142 678 101 624 q 242 762 183 732 q 371 792 300 792 q 547 731 478 792 q 642 558 617 671 z "},"d":{"ha":758,"x_min":57,"x_max":674,"o":"m 538 700 l 538 1058 l 663 1058 l 663 201 q 663 148 663 168 q 663 116 663 128 q 663 97 663 104 q 664 85 664 90 q 666 50 664 68 q 674 0 668 32 l 553 0 l 539 79 q 453 5 499 29 q 346 -19 407 -19 q 224 8 278 -19 q 133 88 171 36 q 76 213 96 139 q 57 382 57 288 q 78 551 57 475 q 136 680 99 626 q 227 763 174 733 q 346 792 281 792 q 444 770 400 792 q 538 700 488 749 m 538 186 l 538 585 q 465 662 510 633 q 372 690 421 690 q 238 612 285 690 q 192 386 192 533 q 239 161 192 238 q 378 85 286 85 q 471 113 426 85 q 538 186 515 142 z "},"e":{"ha":710,"x_min":57,"x_max":663,"o":"m 663 371 l 185 371 l 185 354 q 235 154 185 226 q 372 82 285 82 q 476 116 433 82 q 554 226 518 150 l 661 181 q 371 -19 575 -19 q 139 85 221 -19 q 57 376 57 189 q 78 549 57 472 q 141 680 100 626 q 240 763 182 733 q 369 792 297 792 q 586 686 510 792 q 663 385 663 581 l 663 371 m 369 693 q 243 631 290 693 q 189 456 196 568 l 533 456 l 533 468 q 489 633 533 572 q 369 693 444 693 z "},"f":{"ha":365,"x_min":-11,"x_max":410,"o":"m -11 674 l -11 771 l 111 771 l 111 819 q 119 927 111 889 q 149 997 126 965 q 219 1055 175 1035 q 319 1075 263 1075 q 363 1073 343 1075 q 410 1064 383 1071 l 410 967 q 380 972 393 969 q 351 974 367 974 q 261 939 286 974 q 236 815 236 904 l 236 771 l 392 771 l 392 675 l 238 675 l 238 0 l 110 0 l 110 674 l -11 674 z "},"g":{"ha":682,"x_min":13,"x_max":686,"o":"m 156 56 q 58 168 58 90 q 169 289 58 244 q 142 308 151 300 q 124 326 133 315 q 56 508 56 397 q 77 621 56 569 q 136 710 99 672 q 226 769 174 747 q 342 790 279 790 q 515 731 443 790 q 668 811 571 811 l 686 811 l 686 710 q 670 713 675 713 q 658 714 665 714 q 608 706 629 714 q 567 681 588 699 q 611 599 599 638 q 624 511 624 560 q 603 397 624 449 q 545 309 582 346 q 458 251 508 272 q 346 231 407 231 q 315 232 329 231 q 288 236 301 233 q 258 244 274 239 q 221 258 242 250 q 167 196 167 231 q 209 147 167 164 q 346 126 251 131 l 413 124 q 685 -68 685 114 q 595 -217 685 -162 q 349 -271 506 -271 q 222 -259 286 -271 q 108 -228 157 -247 q 38 -178 64 -210 q 13 -106 13 -146 q 51 -10 13 -51 q 156 56 89 32 m 342 692 q 225 642 268 692 q 182 508 182 592 q 225 378 182 428 q 340 329 268 329 q 458 378 415 329 q 500 511 500 428 q 457 642 500 593 q 342 692 414 692 m 286 25 l 236 32 q 151 -19 182 13 q 119 -87 119 -51 q 186 -153 119 -136 q 274 -169 225 -162 q 363 -175 322 -175 q 517 -152 463 -175 q 571 -86 571 -129 q 531 -17 571 -40 q 403 14 490 7 l 351 18 q 346 18 349 18 q 336 19 343 18 l 286 25 z "},"h":{"ha":754,"x_min":96,"x_max":658,"o":"m 96 0 l 96 1058 l 222 1058 l 222 668 q 324 761 271 732 q 444 790 378 790 q 538 772 494 790 q 608 721 581 753 q 647 644 635 689 q 658 526 658 600 l 658 0 l 531 0 l 531 508 q 529 557 531 538 q 524 592 528 576 q 483 662 517 635 q 403 689 449 689 q 302 652 350 689 q 222 549 254 615 l 222 0 l 96 0 z "},"i":{"ha":321,"x_min":96,"x_max":225,"o":"m 96 0 l 96 771 l 224 771 l 224 0 l 96 0 m 97 838 l 97 1019 l 225 1019 l 225 838 l 97 838 z "},"j":{"ha":319,"x_min":-40,"x_max":224,"o":"m -40 -262 l -36 -165 q -15 -169 -22 -168 q 4 -169 -7 -169 q 49 -164 32 -169 q 77 -143 67 -158 q 92 -101 88 -128 q 96 -33 96 -75 l 96 771 l 222 772 l 222 -37 q 222 -87 222 -64 q 218 -128 221 -111 q 162 -233 208 -200 q 26 -267 115 -267 q -4 -266 8 -267 q -40 -262 -17 -265 m 96 838 l 96 1019 l 224 1019 l 224 838 l 96 838 z "},"k":{"ha":685,"x_min":96,"x_max":703,"o":"m 96 0 l 96 1058 l 222 1058 l 222 433 l 504 771 l 654 771 l 431 508 l 703 0 l 557 0 l 346 414 l 222 274 l 222 0 l 96 0 z "},"l":{"ha":319,"x_min":96,"x_max":224,"o":"m 96 0 l 96 1058 l 224 1058 l 224 0 l 96 0 z "},"m":{"ha":1178,"x_min":96,"x_max":1081,"o":"m 96 0 l 96 771 l 221 771 l 221 668 q 328 763 274 733 q 447 792 383 792 q 570 756 521 792 q 638 656 619 721 q 869 792 736 792 q 967 772 922 792 q 1039 715 1011 751 q 1072 643 1063 683 q 1081 532 1081 603 l 1081 0 l 953 0 l 953 515 q 952 558 953 540 q 949 589 951 575 q 908 663 942 635 q 826 690 875 690 q 728 656 774 690 q 653 554 683 621 l 653 0 l 526 0 l 526 513 q 526 556 526 539 q 524 586 525 574 q 485 662 517 633 q 404 690 453 690 q 306 656 351 690 q 224 557 260 622 l 224 0 l 96 0 z "},"n":{"ha":754,"x_min":96,"x_max":658,"o":"m 96 0 l 96 771 l 222 771 l 222 667 q 333 763 279 733 q 449 793 386 793 q 542 773 499 793 q 614 719 586 753 q 635 687 626 704 q 649 647 643 669 q 656 597 654 625 q 658 532 658 569 l 658 0 l 532 0 l 532 511 q 526 585 532 563 q 489 662 521 633 q 407 690 457 690 q 224 557 301 690 l 224 0 l 96 0 z "},"o":{"ha":744,"x_min":57,"x_max":688,"o":"m 57 386 q 79 554 57 479 q 142 682 101 629 q 241 763 183 735 q 371 792 299 792 q 501 763 443 792 q 601 682 560 735 q 665 554 643 629 q 688 386 688 479 q 665 217 688 292 q 601 89 643 142 q 501 8 560 36 q 371 -21 443 -21 q 241 8 299 -21 q 142 89 183 36 q 79 217 101 142 q 57 386 57 292 m 371 689 q 234 611 282 689 q 186 386 186 533 q 234 159 186 238 q 371 81 282 81 q 508 159 460 81 q 556 386 556 238 q 508 611 556 533 q 371 689 460 689 z "},"p":{"ha":757,"x_min":96,"x_max":700,"o":"m 96 -251 l 96 771 l 221 771 l 221 696 q 313 767 265 744 q 415 790 360 790 q 533 761 481 790 q 623 678 586 732 q 680 550 660 625 q 700 382 700 475 q 624 87 700 193 q 414 -19 549 -19 q 310 3 356 -19 q 222 75 264 25 l 222 -251 l 96 -251 m 224 582 l 224 188 q 294 110 250 139 q 388 81 338 81 q 520 158 474 81 q 567 376 567 235 q 518 605 567 524 q 381 686 469 686 q 224 582 281 686 z "},"q":{"ha":761,"x_min":57,"x_max":672,"o":"m 539 685 l 560 771 l 672 771 q 668 722 669 739 q 665 689 667 706 q 664 638 664 669 q 664 571 664 607 l 664 -251 l 536 -251 l 536 78 q 442 3 486 25 q 342 -18 397 -18 q 224 10 276 -18 q 134 88 171 38 q 77 212 97 139 q 57 375 57 285 q 78 548 57 471 q 137 679 99 625 q 229 763 175 733 q 350 792 283 792 q 453 767 408 792 q 539 685 497 742 m 536 186 l 536 586 q 469 661 513 633 q 376 689 426 689 q 238 608 286 689 q 189 375 189 526 q 236 159 189 233 q 371 85 283 85 q 536 186 463 85 z "},"r":{"ha":485,"x_min":96,"x_max":506,"o":"m 96 0 l 96 771 l 222 771 l 222 592 q 275 678 249 644 q 335 738 301 711 q 413 778 375 767 q 506 790 450 790 l 506 668 l 488 668 q 406 653 447 668 q 333 611 365 639 q 243 496 286 574 q 222 442 222 458 l 224 0 l 96 0 z "},"s":{"ha":618,"x_min":33,"x_max":585,"o":"m 33 154 l 117 219 q 314 86 181 86 q 419 119 379 86 q 458 208 458 153 q 421 289 458 256 q 395 304 408 297 q 363 318 382 311 q 337 328 351 324 q 286 346 322 333 q 244 360 261 354 q 215 370 228 365 q 192 379 203 375 q 169 390 182 383 q 57 568 57 447 q 76 658 57 617 q 127 728 94 699 q 205 775 160 758 q 304 792 250 792 q 390 780 349 792 q 465 746 432 768 q 516 704 494 726 q 561 646 538 682 l 485 575 q 307 690 419 690 q 213 660 249 690 q 178 582 178 631 q 243 489 178 519 q 253 485 247 486 q 264 481 258 483 q 290 469 276 475 q 347 450 304 464 q 389 435 372 442 q 418 424 406 429 q 441 413 431 418 q 463 403 451 408 q 585 218 585 335 q 565 122 585 165 q 510 47 546 78 q 424 -2 474 15 q 314 -19 374 -19 q 33 154 118 -19 z "},"t":{"ha":425,"x_min":-15,"x_max":428,"o":"m -15 674 l -15 771 l 108 771 l 108 964 l 235 964 l 235 771 l 428 771 l 428 674 l 233 674 l 233 218 q 234 183 233 199 q 235 161 235 168 q 326 88 242 88 q 428 110 367 88 l 428 7 l 419 4 q 351 -14 379 -10 q 294 -18 324 -18 q 146 38 194 -18 q 126 66 133 51 q 114 100 118 81 q 108 147 110 119 q 107 215 107 175 l 107 674 l -15 674 z "},"u":{"ha":756,"x_min":96,"x_max":660,"o":"m 532 110 q 426 13 479 43 q 307 -17 374 -17 q 216 1 258 -17 q 146 51 174 18 q 107 126 118 83 q 96 243 96 168 l 96 771 l 222 771 l 222 258 q 226 182 222 208 q 266 112 235 138 q 346 86 297 86 q 442 118 397 86 q 532 218 488 150 l 532 771 l 660 771 l 660 0 l 532 0 l 532 110 z "},"v":{"ha":594,"x_min":-11,"x_max":606,"o":"m -11 771 l 122 771 l 269 279 q 278 246 276 254 q 283 229 281 238 q 293 190 290 208 q 299 136 296 171 q 304 176 301 160 q 310 208 307 193 q 318 240 314 224 q 329 279 322 256 l 476 771 l 606 771 l 356 0 l 239 0 l -11 771 z "},"w":{"ha":963,"x_min":4,"x_max":957,"o":"m 4 771 l 136 771 l 243 307 q 256 238 250 275 q 269 151 263 200 q 274 199 272 182 q 282 238 276 215 q 297 307 290 279 l 425 771 l 542 771 l 669 307 q 700 153 685 251 q 711 238 706 201 q 724 307 717 275 l 832 771 l 957 771 l 761 0 l 642 0 l 517 447 q 508 483 513 464 q 499 525 503 503 q 490 569 493 550 q 481 625 486 589 q 475 569 478 589 q 465 525 472 550 q 458 485 463 504 q 447 447 453 467 l 322 0 l 203 0 l 4 771 z "},"x":{"ha":644,"x_min":-3,"x_max":649,"o":"m -3 0 l 239 408 l 24 771 l 175 771 l 279 576 q 306 522 297 543 q 322 467 314 501 q 331 498 326 485 q 340 523 335 511 q 351 547 344 535 q 365 576 357 560 l 469 771 l 619 771 l 406 410 l 649 0 l 496 0 l 371 233 q 351 269 358 256 q 339 295 344 283 q 330 319 333 307 q 321 349 326 332 q 313 319 317 332 q 305 295 310 307 q 293 269 300 283 q 274 233 286 256 l 147 0 l -3 0 z "},"y":{"ha":608,"x_min":-15,"x_max":615,"o":"m -15 771 l 119 771 l 274 289 q 284 253 279 269 q 293 222 289 238 q 301 190 297 207 q 308 153 304 174 q 314 191 311 175 q 320 222 317 207 q 328 253 324 238 q 339 290 332 269 l 482 771 l 615 771 l 332 -85 q 235 -225 300 -181 q 58 -269 169 -269 q 26 -268 42 -269 q -12 -264 11 -267 l 0 -167 q 26 -169 15 -169 q 50 -169 38 -169 q 117 -160 88 -169 q 168 -129 146 -151 q 208 -72 190 -107 q 243 18 226 -36 l -15 771 z "},"z":{"ha":590,"x_min":29,"x_max":568,"o":"m 29 0 l 29 88 l 374 611 q 401 646 385 629 q 440 682 417 663 q 346 664 388 664 l 74 664 l 74 771 l 568 771 l 568 682 l 235 168 q 202 127 219 144 q 160 90 185 110 q 217 103 192 100 q 271 107 243 107 l 564 107 l 564 0 l 29 0 z "},"{":{"ha":475,"x_min":65,"x_max":374,"o":"m 65 500 q 128 529 103 503 q 153 600 153 556 l 153 1058 q 181 1131 153 1106 q 265 1157 210 1157 l 374 1157 l 374 1094 l 357 1094 q 292 1078 308 1094 q 276 1014 276 1063 l 276 611 q 249 536 276 568 q 178 500 221 504 q 249 464 221 496 q 276 389 276 432 l 276 -14 q 292 -78 276 -62 q 357 -94 308 -94 l 374 -94 l 374 -157 l 265 -157 q 181 -131 210 -157 q 153 -58 153 -106 l 153 400 q 128 471 153 444 q 65 500 103 497 z "},"|":{"ha":256,"x_min":65,"x_max":171,"o":"m 65 0 l 65 1000 l 171 1000 l 171 0 l 65 0 z "},"}":{"ha":475,"x_min":65,"x_max":374,"o":"m 65 -157 l 65 -94 l 82 -94 q 147 -78 131 -94 q 163 -14 163 -62 l 163 389 q 190 464 163 432 q 261 500 218 496 q 190 536 218 504 q 163 611 163 568 l 163 1014 q 147 1078 163 1063 q 82 1094 131 1094 l 65 1094 l 65 1157 l 174 1157 q 258 1131 229 1157 q 286 1058 286 1106 l 286 600 q 311 529 286 556 q 374 500 336 503 q 311 471 336 497 q 286 400 286 444 l 286 -58 q 258 -131 286 -106 q 174 -157 229 -157 l 65 -157 z "},"~":{"ha":468,"x_min":0,"x_max":468,"o":"m 0 1068 q 44 1182 6 1142 q 150 1222 83 1222 q 188 1217 167 1222 q 249 1199 210 1211 q 305 1183 283 1188 q 342 1178 326 1178 q 403 1221 388 1178 l 468 1221 q 424 1106 461 1146 q 328 1067 388 1067 q 301 1068 315 1067 q 268 1073 286 1069 q 226 1083 250 1076 q 171 1100 203 1089 q 144 1107 156 1104 q 125 1110 133 1110 q 71 1068 83 1110 l 0 1068 z "},"¡":{"ha":278,"x_min":76,"x_max":224,"o":"m 81 826 l 81 1001 l 218 1001 l 218 826 l 81 826 m 76 0 l 104 756 l 196 756 l 224 0 l 76 0 z "},"¢":{"ha":686,"x_min":57,"x_max":651,"o":"m 335 790 l 335 867 l 413 867 l 413 790 q 563 717 508 771 q 642 558 618 663 l 525 529 q 484 633 510 597 q 411 686 458 668 l 411 90 q 452 105 435 96 q 484 131 469 114 q 511 174 499 147 q 538 239 524 200 l 651 199 q 622 129 638 158 q 585 74 607 100 q 543 33 565 51 q 494 4 521 15 q 457 -10 474 -6 q 408 -19 440 -14 l 408 -114 l 331 -114 l 331 -18 q 127 99 197 -1 q 57 372 57 199 q 142 675 57 558 q 242 761 179 729 q 281 778 263 772 q 335 790 300 783 m 332 90 l 332 686 q 275 656 296 674 q 239 607 254 639 q 203 501 215 563 q 190 374 190 440 q 227 178 190 251 q 332 90 264 106 z "},"£":{"ha":735,"x_min":61,"x_max":672,"o":"m 61 0 l 61 85 l 88 85 q 167 99 131 85 q 230 140 204 114 q 270 201 256 165 q 285 282 285 238 q 273 371 285 325 q 235 467 261 417 l 63 467 l 63 556 l 181 556 l 179 557 q 131 624 150 596 q 101 675 111 651 q 86 721 90 699 q 82 771 82 743 q 104 872 82 826 q 166 951 126 918 q 261 1003 206 985 q 382 1022 317 1022 q 578 965 504 1022 q 671 800 653 908 l 536 800 q 485 898 526 863 q 378 933 443 933 q 267 892 311 933 q 224 783 224 850 q 230 733 224 757 q 247 686 236 708 q 252 679 250 683 q 257 672 254 675 q 272 648 261 665 q 301 603 282 631 q 315 582 307 594 q 333 554 322 569 l 576 554 l 576 467 l 382 467 q 412 378 403 418 q 421 299 421 339 q 413 235 421 264 q 385 174 404 206 q 357 138 372 153 q 310 103 342 124 l 672 103 l 672 0 l 61 0 z "},"¥":{"ha":860,"x_min":43,"x_max":817,"o":"m 43 1001 l 190 1001 l 389 640 q 406 607 400 621 q 417 581 413 593 q 424 554 421 568 q 429 519 426 540 q 435 553 432 539 q 443 582 439 568 q 453 609 447 596 q 469 640 460 622 l 674 1001 l 817 1001 l 558 539 l 782 539 l 782 461 l 514 461 l 494 429 l 493 401 l 781 401 l 781 326 l 494 326 l 494 0 l 358 0 l 358 326 l 82 326 l 81 404 l 360 404 l 358 429 l 340 461 l 82 461 l 82 542 l 299 542 l 43 1001 z "},"§":{"ha":832,"x_min":50,"x_max":781,"o":"m 211 599 q 125 772 125 671 q 149 870 125 825 q 213 949 172 915 q 310 1001 254 982 q 432 1019 367 1019 q 554 1000 499 1019 q 651 945 610 981 q 715 860 692 910 q 742 751 739 811 l 613 753 q 556 879 606 832 q 429 926 506 926 q 366 915 396 926 q 313 883 336 903 q 277 836 290 863 q 264 781 264 810 q 310 681 264 726 q 338 658 325 665 q 381 642 350 651 l 628 558 q 740 480 700 535 q 781 350 781 425 q 741 229 781 281 q 628 150 701 178 q 691 72 672 111 q 710 -19 710 32 q 688 -120 710 -74 q 625 -200 665 -167 q 529 -252 585 -233 q 407 -271 474 -271 q 280 -251 338 -271 q 181 -198 222 -232 q 115 -117 139 -164 q 92 -14 92 -69 l 92 6 l 219 3 l 219 -6 q 234 -74 219 -43 q 274 -129 249 -106 q 333 -166 299 -153 q 407 -179 367 -179 q 472 -168 442 -179 q 523 -137 501 -157 q 557 -90 544 -117 q 569 -32 569 -64 q 451 111 569 74 l 201 190 q 89 265 128 214 q 50 386 50 315 q 92 515 50 460 q 211 599 133 571 m 543 467 l 326 536 q 309 538 317 538 q 296 539 301 539 q 254 528 274 539 q 220 501 235 518 q 197 460 206 483 q 189 410 189 436 q 221 326 189 363 q 307 272 253 289 l 511 211 l 532 211 q 614 247 581 211 q 647 335 647 282 q 619 416 647 381 q 543 467 592 451 z "},"¨":{"ha":335,"x_min":-25,"x_max":363,"o":"m -25 833 l -25 1015 l 96 1015 l 96 833 l -25 833 m 240 833 l 240 1015 l 363 1015 l 363 833 l 240 833 z "},"©":{"ha":1294,"x_min":81,"x_max":1117,"o":"m 81 501 q 119 700 81 606 q 232 868 158 794 q 403 981 308 943 q 599 1019 499 1019 q 794 981 699 1019 q 965 868 889 943 q 1079 697 1042 792 q 1117 501 1117 601 q 1079 306 1117 401 q 965 135 1042 211 q 794 20 889 58 q 599 -18 699 -18 q 403 20 499 -18 q 232 135 308 58 q 119 303 158 208 q 81 501 81 397 m 150 501 q 185 326 150 410 q 283 178 219 243 q 431 79 349 113 q 599 46 514 46 q 767 79 685 46 q 915 178 850 113 q 1015 328 982 244 q 1047 500 1047 413 q 1014 672 1047 588 q 915 824 981 757 q 767 923 850 890 q 599 956 685 956 q 431 923 513 956 q 283 824 349 890 q 185 676 219 758 q 150 501 150 593 m 840 756 l 799 694 q 742 733 772 718 q 676 756 711 749 q 557 753 614 768 q 457 701 500 738 q 389 610 414 664 q 365 490 364 556 q 369 439 365 464 q 423 324 382 372 q 520 253 464 276 q 640 233 576 229 q 763 272 704 236 q 796 297 781 285 l 839 238 q 624 158 750 163 q 460 194 533 156 q 340 297 386 232 q 283 446 294 361 q 304 621 271 531 q 363 721 325 676 q 449 793 400 765 q 558 831 499 821 q 679 831 617 842 q 840 756 769 815 z "},"ª":{"ha":669,"x_min":57,"x_max":554,"o":"m 79 472 l 554 472 l 554 388 l 79 388 l 79 472 m 461 906 l 461 1000 l 553 1000 l 554 540 l 461 540 l 461 642 l 457 631 q 419 575 444 599 q 358 540 393 551 q 283 529 324 528 q 203 547 243 531 q 115 613 150 568 q 69 719 81 657 q 75 846 57 788 q 131 945 93 904 q 222 1005 169 986 q 329 1011 274 1024 q 400 981 371 1001 q 450 926 429 960 l 457 915 l 461 906 m 160 772 q 164 740 160 754 q 188 681 171 707 q 228 638 204 654 q 313 610 268 610 q 397 639 358 611 q 437 681 421 656 q 460 739 453 707 q 460 806 465 772 q 374 921 443 889 q 253 922 313 949 q 194 876 218 907 q 163 801 171 844 q 160 787 161 794 q 160 772 160 779 z "},"«":{"ha":614,"x_min":44,"x_max":569,"o":"m 44 383 l 258 769 l 332 753 l 188 386 l 338 17 l 258 0 l 44 383 m 278 383 l 489 769 l 564 753 l 419 386 l 569 17 l 492 0 l 278 383 z "},"¬":{"ha":871,"x_min":65,"x_max":740,"o":"m 65 500 l 65 606 l 740 606 l 740 300 l 653 300 l 653 500 l 65 500 z "},"®":{"ha":1294,"x_min":81,"x_max":1117,"o":"m 81 501 q 119 700 81 606 q 232 868 158 794 q 403 981 308 943 q 599 1019 499 1019 q 794 981 699 1019 q 965 868 889 943 q 1079 697 1042 792 q 1117 501 1117 601 q 1079 306 1117 401 q 965 135 1042 211 q 794 20 889 58 q 599 -18 699 -18 q 403 20 499 -18 q 232 135 308 58 q 119 303 158 208 q 81 501 81 397 m 150 501 q 185 326 150 410 q 283 178 219 243 q 431 79 349 113 q 599 46 514 46 q 767 79 685 46 q 915 178 850 113 q 1015 328 982 244 q 1047 500 1047 413 q 1014 672 1047 588 q 915 824 981 757 q 767 923 850 890 q 599 956 685 956 q 431 923 513 956 q 283 824 349 890 q 185 676 219 758 q 150 501 150 593 m 436 182 l 436 833 l 589 833 q 677 824 646 833 q 735 794 708 815 q 793 694 781 757 q 768 550 808 607 q 649 482 728 493 q 638 481 643 482 q 626 481 632 481 l 831 182 l 732 182 l 519 503 l 519 182 l 436 182 m 519 531 l 574 531 q 676 560 642 531 q 713 646 711 590 q 681 733 714 701 q 582 764 647 764 l 519 764 l 519 531 z "},"±":{"ha":825,"x_min":61,"x_max":703,"o":"m 703 121 l 703 26 l 61 26 l 61 121 l 703 121 m 429 629 l 429 460 l 703 460 l 703 365 l 429 365 l 429 196 l 335 196 l 335 365 l 61 365 l 61 460 l 335 460 l 335 629 l 429 629 z "},"´":{"ha":276,"x_min":61,"x_max":285,"o":"m 61 833 l 164 1049 l 285 1049 l 185 833 l 61 833 z "},"µ":{"ha":865,"x_min":101,"x_max":775,"o":"m 231 624 l 231 213 q 250 81 231 114 q 319 47 268 47 q 451 158 399 46 q 504 443 504 272 l 504 624 l 632 624 l 632 168 q 644 76 632 106 q 685 47 657 49 q 729 76 713 47 q 744 161 744 104 l 744 181 l 774 181 q 775 168 774 174 l 775 150 q 742 29 775 72 q 650 -12 710 -12 q 544 47 583 -14 q 508 226 511 103 q 424 46 476 103 q 289 -12 371 -10 q 188 24 228 -12 q 132 131 149 58 q 131 115 132 124 q 131 92 131 106 q 175 -104 129 6 q 219 -232 219 -212 q 204 -275 219 -260 q 161 -290 189 -290 q 115 -267 131 -292 q 101 -193 104 -247 q 102 -167 101 -186 q 104 -112 103 -147 q 106 -49 106 -79 q 107 11 107 -18 q 107 71 107 36 q 106 151 107 106 q 103 230 104 197 q 103 283 103 263 l 103 624 l 231 624 z "},"¶":{"ha":894,"x_min":65,"x_max":763,"o":"m 333 1000 l 763 1000 l 763 928 l 333 928 q 257 912 293 928 q 194 869 221 896 q 153 805 168 842 q 139 726 138 768 q 155 649 139 685 q 197 588 171 614 q 258 546 224 561 q 333 531 293 531 l 429 531 l 429 867 l 506 867 l 506 0 l 429 0 l 429 458 l 333 458 q 229 480 278 458 q 144 538 181 501 q 86 623 107 574 q 65 729 65 672 q 86 835 65 785 q 144 921 107 885 q 229 978 181 957 q 333 1000 278 1000 m 597 0 l 597 867 l 674 867 l 674 0 l 597 0 z "},"¸":{"ha":225,"x_min":1,"x_max":221,"o":"m 1 -256 l 99 -64 l 221 -64 l 97 -256 l 1 -256 z "},"º":{"ha":669,"x_min":65,"x_max":558,"o":"m 74 388 l 74 472 l 547 472 l 547 388 l 74 388 m 65 774 q 67 799 65 786 q 71 824 68 811 q 116 926 83 882 q 195 994 149 969 q 297 1022 242 1018 q 407 1001 351 1025 q 477 956 446 985 q 527 892 508 928 q 552 813 546 856 q 550 724 558 769 q 484 597 535 649 q 360 531 433 546 q 261 531 310 519 q 135 597 186 546 q 69 724 85 649 q 65 774 65 749 m 158 774 q 158 759 158 767 q 160 744 158 751 q 190 672 167 703 q 247 626 213 642 q 317 612 282 610 q 381 630 351 614 q 432 675 411 646 q 460 743 453 704 q 451 838 468 794 q 397 907 433 881 q 324 935 364 931 q 247 922 285 940 q 190 876 213 907 q 160 804 167 844 q 158 789 158 797 q 158 774 158 781 z "},"»":{"ha":610,"x_min":44,"x_max":564,"o":"m 44 17 l 196 385 l 47 754 l 124 769 l 332 385 l 119 0 l 44 17 m 278 17 l 426 385 l 279 754 l 356 769 l 564 385 l 353 0 l 278 17 z "},"¿":{"ha":494,"x_min":32,"x_max":488,"o":"m 247 826 l 247 1001 l 385 1001 l 385 826 l 247 826 m 263 757 l 372 757 l 372 721 q 368 641 372 681 q 356 576 364 601 q 322 507 344 544 q 263 419 300 469 l 217 358 q 171 283 188 319 q 154 211 154 247 q 185 124 154 158 q 264 89 217 89 q 388 190 342 89 l 488 138 q 396 23 454 63 q 258 -17 338 -17 q 168 0 210 -17 q 96 47 126 17 q 49 119 65 78 q 32 208 32 160 q 42 284 32 247 q 72 354 51 321 q 81 368 75 361 q 90 383 86 375 q 101 398 96 392 q 115 415 107 404 q 135 440 122 425 q 167 481 147 456 q 201 525 188 507 q 223 558 214 543 q 238 584 232 572 q 247 611 243 596 q 259 665 254 631 q 264 731 264 699 q 263 742 264 736 q 263 757 263 747 z "},"À":{"ha":757,"x_min":-14,"x_max":771,"o":"m -14 0 l 297 1001 l 461 1001 l 771 0 l 629 0 l 547 276 l 208 276 l 128 0 l -14 0 m 347 772 l 240 389 l 517 389 l 408 772 q 399 805 404 788 q 390 840 393 822 q 384 873 386 860 q 378 914 382 886 q 371 874 374 889 q 365 840 368 860 q 356 806 360 821 q 347 772 353 790 m 214 1329 l 338 1329 l 438 1114 l 315 1114 l 214 1329 z "},"Á":{"ha":757,"x_min":-14,"x_max":771,"o":"m -14 0 l 297 1001 l 461 1001 l 771 0 l 629 0 l 547 276 l 208 276 l 128 0 l -14 0 m 347 772 l 240 389 l 517 389 l 408 772 q 399 805 404 788 q 390 840 393 822 q 384 873 386 860 q 378 914 382 886 q 371 874 374 889 q 365 840 368 860 q 356 806 360 821 q 347 772 353 790 m 331 1113 l 433 1328 l 554 1328 l 454 1113 l 331 1113 z "},"Â":{"ha":757,"x_min":-14,"x_max":771,"o":"m -14 0 l 297 1001 l 461 1001 l 771 0 l 629 0 l 547 276 l 208 276 l 128 0 l -14 0 m 347 772 l 240 389 l 517 389 l 408 772 q 399 805 404 788 q 390 840 393 822 q 384 873 386 860 q 378 914 382 886 q 371 874 374 889 q 365 840 368 860 q 356 806 360 821 q 347 772 353 790 m 174 1113 l 272 1328 l 492 1328 l 593 1113 l 485 1113 l 385 1313 l 286 1113 l 174 1113 z "},"Ã":{"ha":757,"x_min":-14,"x_max":771,"o":"m -14 0 l 297 1001 l 461 1001 l 771 0 l 629 0 l 547 276 l 208 276 l 128 0 l -14 0 m 347 772 l 240 389 l 517 389 l 408 772 q 399 805 404 788 q 390 840 393 822 q 384 873 386 860 q 378 914 382 886 q 371 874 374 889 q 365 840 368 860 q 356 806 360 821 q 347 772 353 790 m 183 1114 q 225 1208 190 1176 q 319 1240 260 1240 q 355 1236 336 1240 q 410 1221 374 1232 q 496 1203 472 1203 q 530 1211 517 1203 q 553 1240 543 1219 l 608 1240 q 479 1114 588 1114 q 456 1115 468 1114 q 428 1119 444 1117 q 390 1128 413 1122 q 336 1143 368 1135 q 294 1150 308 1150 q 242 1114 258 1150 l 183 1114 z "},"Ä":{"ha":757,"x_min":-14,"x_max":771,"o":"m 146 976 l 146 1140 l 274 1140 l 274 976 l 146 976 m 483 976 l 483 1140 l 611 1140 l 611 976 l 483 976 m -14 0 l 297 1001 l 461 1001 l 771 0 l 629 0 l 547 276 l 208 276 l 128 0 l -14 0 m 347 772 l 240 389 l 517 389 l 408 772 q 399 805 404 788 q 390 840 393 822 q 384 873 386 860 q 378 914 382 886 q 371 874 374 889 q 365 840 368 860 q 356 806 360 821 q 347 772 353 790 z "},"Å":{"ha":757,"x_min":-14,"x_max":771,"o":"m -14 0 l 297 1001 l 461 1001 l 771 0 l 629 0 l 547 276 l 208 276 l 128 0 l -14 0 m 347 772 l 240 389 l 517 389 l 408 772 q 399 805 404 788 q 390 840 393 822 q 384 873 386 860 q 378 914 382 886 q 371 874 374 889 q 365 840 368 860 q 356 806 360 821 q 347 772 353 790 m 250 1172 q 288 1260 250 1224 q 379 1296 325 1296 q 429 1286 406 1296 q 470 1260 453 1276 q 498 1221 488 1243 q 508 1172 508 1199 q 498 1124 508 1147 q 470 1085 488 1101 q 429 1058 453 1068 q 379 1049 406 1049 q 288 1085 325 1049 q 250 1172 250 1121 m 378 1235 q 331 1217 350 1235 q 313 1172 313 1199 q 332 1130 313 1149 q 379 1111 351 1111 q 426 1129 407 1111 q 446 1172 446 1147 q 426 1217 446 1199 q 378 1235 406 1235 z "},"Æ":{"ha":1240,"x_min":-14,"x_max":1219,"o":"m -14 0 l 560 1001 l 1203 1001 l 1203 885 l 733 885 l 733 572 l 1078 572 l 1078 457 l 735 457 l 735 114 l 1219 114 l 1219 0 l 599 0 l 599 272 l 293 272 l 140 0 l -14 0 m 597 835 l 350 388 l 597 388 l 597 835 z "},"Ç":{"ha":847,"x_min":57,"x_max":803,"o":"m 793 692 l 663 679 q 596 858 649 797 q 456 919 543 919 q 350 890 397 919 q 271 806 303 861 q 222 672 239 750 q 204 493 204 593 q 268 194 204 297 q 450 90 332 90 q 668 332 626 90 l 803 310 q 683 63 772 146 q 447 -19 593 -19 q 283 15 356 -19 q 160 114 210 49 q 83 272 110 179 q 57 485 57 365 q 85 706 57 607 q 164 876 113 806 q 288 984 215 946 q 450 1022 360 1022 q 604 988 533 1022 q 719 892 675 954 q 767 804 750 851 q 793 692 785 757 m 286 -228 l 385 -37 l 506 -37 l 383 -228 l 286 -228 z "},"È":{"ha":736,"x_min":96,"x_max":715,"o":"m 96 0 l 96 1001 l 699 1001 l 699 888 l 231 888 l 231 571 l 572 571 l 572 458 l 231 458 l 231 114 l 715 114 l 715 0 l 96 0 m 243 1329 l 367 1329 l 467 1114 l 344 1114 l 243 1329 z "},"É":{"ha":736,"x_min":96,"x_max":715,"o":"m 96 0 l 96 1001 l 699 1001 l 699 888 l 231 888 l 231 571 l 572 571 l 572 458 l 231 458 l 231 114 l 715 114 l 715 0 l 96 0 m 336 1113 l 439 1328 l 560 1328 l 460 1113 l 336 1113 z "},"Ê":{"ha":736,"x_min":96,"x_max":715,"o":"m 96 0 l 96 1001 l 699 1001 l 699 888 l 231 888 l 231 571 l 572 571 l 572 458 l 231 458 l 231 114 l 715 114 l 715 0 l 96 0 m 186 1113 l 285 1328 l 504 1328 l 606 1113 l 497 1113 l 397 1313 l 299 1113 l 186 1113 z "},"Ë":{"ha":736,"x_min":96,"x_max":715,"o":"m 211 1113 l 211 1294 l 332 1294 l 332 1113 l 211 1113 m 476 1113 l 476 1294 l 599 1294 l 599 1113 l 476 1113 m 96 0 l 96 1001 l 699 1001 l 699 888 l 231 888 l 231 571 l 572 571 l 572 458 l 231 458 l 231 114 l 715 114 l 715 0 l 96 0 z "},"Ì":{"ha":329,"x_min":-1,"x_max":231,"o":"m 96 0 l 96 1001 l 231 1001 l 231 0 l 96 0 m -1 1329 l 122 1329 l 222 1114 l 100 1114 l -1 1329 z "},"Í":{"ha":329,"x_min":96,"x_max":332,"o":"m 96 0 l 96 1001 l 231 1001 l 231 0 l 96 0 m 108 1113 l 211 1328 l 332 1328 l 232 1113 l 108 1113 z "},"Î":{"ha":329,"x_min":-39,"x_max":381,"o":"m 96 0 l 96 1001 l 231 1001 l 231 0 l 96 0 m -39 1113 l 60 1328 l 279 1328 l 381 1113 l 272 1113 l 172 1313 l 74 1113 l -39 1113 z "},"Ï":{"ha":329,"x_min":-25,"x_max":363,"o":"m 96 0 l 96 1001 l 231 1001 l 231 0 l 96 0 m -25 1113 l -25 1294 l 96 1294 l 96 1113 l -25 1113 m 240 1113 l 240 1294 l 363 1294 l 363 1113 l 240 1113 z "},"Ñ":{"ha":922,"x_min":96,"x_max":825,"o":"m 96 0 l 96 1001 l 269 1001 l 638 313 q 653 285 646 297 q 667 257 660 272 q 677 235 672 244 q 687 215 682 225 q 697 191 692 204 q 710 161 703 178 q 699 204 703 186 q 694 239 696 222 q 692 275 693 256 q 692 325 692 294 l 692 1001 l 825 1001 l 825 0 l 679 0 l 289 725 q 272 756 279 743 q 258 783 265 769 q 240 824 247 806 q 217 876 232 843 q 224 821 222 840 q 228 778 226 801 q 229 746 229 763 q 229 711 229 729 l 229 0 l 96 0 m 275 1114 q 317 1208 282 1176 q 411 1240 351 1240 q 447 1236 428 1240 q 501 1221 465 1232 q 588 1203 564 1203 q 622 1211 608 1203 q 644 1240 635 1219 l 700 1240 q 571 1114 679 1114 q 548 1115 560 1114 q 520 1119 536 1117 q 482 1128 504 1122 q 428 1143 460 1135 q 386 1150 400 1150 q 333 1114 350 1150 l 275 1114 z "},"Ò":{"ha":918,"x_min":57,"x_max":860,"o":"m 57 500 q 85 716 57 619 q 167 881 114 813 q 294 985 219 949 q 460 1022 368 1022 q 625 985 551 1022 q 751 881 699 949 q 831 716 803 813 q 860 500 860 619 q 831 285 860 381 q 751 121 803 189 q 625 16 699 53 q 460 -21 551 -21 q 294 16 368 -21 q 167 121 219 53 q 85 285 114 189 q 57 500 57 381 m 460 913 q 354 884 401 913 q 275 802 307 856 q 226 672 243 749 q 208 500 208 596 q 226 328 208 404 q 276 199 243 251 q 355 117 308 146 q 460 89 401 89 q 564 117 518 89 q 642 199 610 146 q 691 328 674 253 q 708 500 708 404 q 691 672 708 596 q 642 802 674 749 q 564 884 610 856 q 460 913 518 913 m 304 1329 l 428 1329 l 528 1114 l 406 1114 l 304 1329 z "},"Ó":{"ha":918,"x_min":57,"x_max":860,"o":"m 57 500 q 85 716 57 619 q 167 881 114 813 q 294 985 219 949 q 460 1022 368 1022 q 625 985 551 1022 q 751 881 699 949 q 831 716 803 813 q 860 500 860 619 q 831 285 860 381 q 751 121 803 189 q 625 16 699 53 q 460 -21 551 -21 q 294 16 368 -21 q 167 121 219 53 q 85 285 114 189 q 57 500 57 381 m 460 913 q 354 884 401 913 q 275 802 307 856 q 226 672 243 749 q 208 500 208 596 q 226 328 208 404 q 276 199 243 251 q 355 117 308 146 q 460 89 401 89 q 564 117 518 89 q 642 199 610 146 q 691 328 674 253 q 708 500 708 404 q 691 672 708 596 q 642 802 674 749 q 564 884 610 856 q 460 913 518 913 m 396 1113 l 499 1328 l 619 1328 l 519 1113 l 396 1113 z "},"Ô":{"ha":918,"x_min":57,"x_max":860,"o":"m 57 500 q 85 716 57 619 q 167 881 114 813 q 294 985 219 949 q 460 1022 368 1022 q 625 985 551 1022 q 751 881 699 949 q 831 716 803 813 q 860 500 860 619 q 831 285 860 381 q 751 121 803 189 q 625 16 699 53 q 460 -21 551 -21 q 294 16 368 -21 q 167 121 219 53 q 85 285 114 189 q 57 500 57 381 m 460 913 q 354 884 401 913 q 275 802 307 856 q 226 672 243 749 q 208 500 208 596 q 226 328 208 404 q 276 199 243 251 q 355 117 308 146 q 460 89 401 89 q 564 117 518 89 q 642 199 610 146 q 691 328 674 253 q 708 500 708 404 q 691 672 708 596 q 642 802 674 749 q 564 884 610 856 q 460 913 518 913 m 254 1113 l 353 1328 l 572 1328 l 674 1113 l 565 1113 l 465 1313 l 367 1113 l 254 1113 z "},"Õ":{"ha":918,"x_min":57,"x_max":860,"o":"m 57 500 q 85 716 57 619 q 167 881 114 813 q 294 985 219 949 q 460 1022 368 1022 q 625 985 551 1022 q 751 881 699 949 q 831 716 803 813 q 860 500 860 619 q 831 285 860 381 q 751 121 803 189 q 625 16 699 53 q 460 -21 551 -21 q 294 16 368 -21 q 167 121 219 53 q 85 285 114 189 q 57 500 57 381 m 460 913 q 354 884 401 913 q 275 802 307 856 q 226 672 243 749 q 208 500 208 596 q 226 328 208 404 q 276 199 243 251 q 355 117 308 146 q 460 89 401 89 q 564 117 518 89 q 642 199 610 146 q 691 328 674 253 q 708 500 708 404 q 691 672 708 596 q 642 802 674 749 q 564 884 610 856 q 460 913 518 913 m 263 1114 q 304 1208 269 1176 q 399 1240 339 1240 q 434 1236 415 1240 q 489 1221 453 1232 q 575 1203 551 1203 q 609 1211 596 1203 q 632 1240 622 1219 l 688 1240 q 558 1114 667 1114 q 535 1115 547 1114 q 508 1119 524 1117 q 469 1128 492 1122 q 415 1143 447 1135 q 374 1150 388 1150 q 321 1114 338 1150 l 263 1114 z "},"Ö":{"ha":918,"x_min":57,"x_max":860,"o":"m 79 963 l 79 1128 l 207 1128 l 207 963 l 79 963 m 710 963 l 710 1128 l 838 1128 l 838 963 l 710 963 m 57 500 q 85 716 57 619 q 167 881 114 813 q 294 985 219 949 q 460 1022 368 1022 q 625 985 551 1022 q 751 881 699 949 q 831 716 803 813 q 860 500 860 619 q 831 285 860 381 q 751 121 803 189 q 625 16 699 53 q 460 -21 551 -21 q 294 16 368 -21 q 167 121 219 53 q 85 285 114 189 q 57 500 57 381 m 460 913 q 354 884 401 913 q 275 802 307 856 q 226 672 243 749 q 208 500 208 596 q 226 328 208 404 q 276 199 243 251 q 355 117 308 146 q 460 89 401 89 q 564 117 518 89 q 642 199 610 146 q 691 328 674 253 q 708 500 708 404 q 691 672 708 596 q 642 802 674 749 q 564 884 610 856 q 460 913 518 913 z "},"×":{"ha":760,"x_min":110,"x_max":649,"o":"m 110 318 l 297 506 l 111 693 l 192 775 l 378 589 l 567 776 l 649 693 l 463 506 l 649 321 l 567 239 l 378 426 l 190 238 l 110 318 z "},"Ø":{"ha":928,"x_min":57,"x_max":871,"o":"m 57 31 l 150 149 q 129 187 139 168 q 111 222 119 206 q 72 344 86 274 q 58 497 58 415 q 87 716 58 618 q 167 883 115 814 q 294 988 219 951 q 460 1025 368 1025 q 740 901 632 1025 l 818 997 l 871 958 l 782 842 q 801 803 793 819 q 814 774 808 786 q 850 647 838 715 q 863 500 863 579 q 834 283 863 381 q 753 118 806 186 q 627 13 701 50 q 461 -24 553 -24 q 314 3 379 -24 q 192 89 249 31 l 110 -17 l 57 31 m 682 721 l 279 197 q 354 115 307 144 q 461 85 401 85 q 565 113 519 85 q 643 195 611 142 q 692 326 675 249 q 710 499 710 403 q 708 558 710 532 q 704 610 707 585 q 696 663 701 636 q 682 721 690 689 m 249 267 l 653 796 q 565 886 608 858 q 468 914 522 914 q 358 882 410 914 q 278 797 306 850 q 232 665 247 740 q 217 488 217 589 q 235 317 217 388 q 241 295 238 307 q 249 267 244 283 z "},"Ù":{"ha":890,"x_min":96,"x_max":793,"o":"m 793 1001 l 793 376 q 783 229 793 276 q 743 126 772 172 q 670 48 714 81 q 569 -3 626 15 q 444 -21 511 -21 q 292 8 361 -21 q 175 89 222 36 q 136 141 151 115 q 112 199 121 167 q 99 274 103 231 q 96 376 96 317 l 96 1001 l 233 1001 l 233 382 q 234 313 233 340 q 238 265 235 285 q 304 140 249 186 q 444 93 360 93 q 614 168 556 93 q 637 203 628 186 q 651 244 646 221 q 657 301 656 268 q 658 382 658 333 l 658 1001 l 793 1001 m 313 1329 l 436 1329 l 536 1114 l 414 1114 l 313 1329 z "},"Ú":{"ha":890,"x_min":96,"x_max":793,"o":"m 793 1001 l 793 376 q 783 229 793 276 q 743 126 772 172 q 670 48 714 81 q 569 -3 626 15 q 444 -21 511 -21 q 292 8 361 -21 q 175 89 222 36 q 136 141 151 115 q 112 199 121 167 q 99 274 103 231 q 96 376 96 317 l 96 1001 l 233 1001 l 233 382 q 234 313 233 340 q 238 265 235 285 q 304 140 249 186 q 444 93 360 93 q 614 168 556 93 q 637 203 628 186 q 651 244 646 221 q 657 301 656 268 q 658 382 658 333 l 658 1001 l 793 1001 m 389 1113 l 492 1328 l 613 1328 l 513 1113 l 389 1113 z "},"Û":{"ha":890,"x_min":96,"x_max":793,"o":"m 793 1001 l 793 376 q 783 229 793 276 q 743 126 772 172 q 670 48 714 81 q 569 -3 626 15 q 444 -21 511 -21 q 292 8 361 -21 q 175 89 222 36 q 136 141 151 115 q 112 199 121 167 q 99 274 103 231 q 96 376 96 317 l 96 1001 l 233 1001 l 233 382 q 234 313 233 340 q 238 265 235 285 q 304 140 249 186 q 444 93 360 93 q 614 168 556 93 q 637 203 628 186 q 651 244 646 221 q 657 301 656 268 q 658 382 658 333 l 658 1001 l 793 1001 m 253 1113 l 351 1328 l 571 1328 l 672 1113 l 564 1113 l 464 1313 l 365 1113 l 253 1113 z "},"Ü":{"ha":890,"x_min":96,"x_max":793,"o":"m 264 976 l 264 1138 l 392 1138 l 392 976 l 264 976 m 507 976 l 507 1138 l 633 1138 l 633 976 l 507 976 m 793 1001 l 793 376 q 783 229 793 276 q 743 126 772 172 q 670 48 714 81 q 569 -3 626 15 q 444 -21 511 -21 q 292 8 361 -21 q 175 89 222 36 q 136 141 151 115 q 112 199 121 167 q 99 274 103 231 q 96 376 96 317 l 96 1001 l 233 1001 l 233 382 q 234 313 233 340 q 238 265 235 285 q 304 140 249 186 q 444 93 360 93 q 614 168 556 93 q 637 203 628 186 q 651 244 646 221 q 657 301 656 268 q 658 382 658 333 l 658 1001 l 793 1001 z "},"ß":{"ha":774,"x_min":96,"x_max":725,"o":"m 96 0 l 96 799 q 99 863 96 835 q 108 914 101 892 q 194 1034 126 990 q 357 1078 261 1078 q 542 1016 474 1078 q 611 850 611 954 q 481 660 611 707 q 664 563 603 644 q 725 336 725 482 q 642 74 725 165 q 403 -18 558 -18 q 364 -17 381 -18 q 318 -11 347 -15 l 318 88 q 355 81 342 82 q 385 79 368 79 q 596 336 596 79 q 369 597 596 597 q 353 597 360 597 q 335 596 347 597 l 335 685 q 454 722 414 685 q 494 831 494 760 q 459 933 494 894 q 364 971 424 971 q 302 958 332 971 q 254 925 272 946 q 222 807 222 889 l 222 0 l 96 0 z "},"à":{"ha":710,"x_min":49,"x_max":626,"o":"m 489 496 l 489 564 q 360 688 489 688 q 261 657 301 688 q 192 560 221 626 l 82 610 q 367 790 176 790 q 470 774 424 790 q 553 728 517 757 q 601 659 586 699 q 615 554 615 619 l 615 164 q 616 101 615 125 q 618 60 617 76 q 622 35 619 47 q 626 0 624 24 l 507 0 l 494 107 q 387 10 443 40 q 263 -19 331 -19 q 176 -4 215 -19 q 108 39 136 11 q 65 105 81 67 q 49 189 49 143 q 107 339 49 282 q 292 432 165 396 l 375 456 q 430 472 404 464 q 489 496 456 481 m 489 229 l 489 403 q 469 393 478 397 q 450 385 460 389 q 428 378 440 382 q 400 369 417 375 l 335 349 q 211 286 249 321 q 174 193 174 251 q 206 108 174 140 q 292 76 239 76 q 422 129 361 76 q 471 184 453 157 q 489 229 489 211 m 225 1050 l 349 1050 l 449 835 l 326 835 l 225 1050 z "},"á":{"ha":710,"x_min":49,"x_max":626,"o":"m 489 496 l 489 564 q 360 688 489 688 q 261 657 301 688 q 192 560 221 626 l 82 610 q 367 790 176 790 q 470 774 424 790 q 553 728 517 757 q 601 659 586 699 q 615 554 615 619 l 615 164 q 616 101 615 125 q 618 60 617 76 q 622 35 619 47 q 626 0 624 24 l 507 0 l 494 107 q 387 10 443 40 q 263 -19 331 -19 q 176 -4 215 -19 q 108 39 136 11 q 65 105 81 67 q 49 189 49 143 q 107 339 49 282 q 292 432 165 396 l 375 456 q 430 472 404 464 q 489 496 456 481 m 489 229 l 489 403 q 469 393 478 397 q 450 385 460 389 q 428 378 440 382 q 400 369 417 375 l 335 349 q 211 286 249 321 q 174 193 174 251 q 206 108 174 140 q 292 76 239 76 q 422 129 361 76 q 471 184 453 157 q 489 229 489 211 m 304 833 l 407 1049 l 528 1049 l 428 833 l 304 833 z "},"â":{"ha":710,"x_min":49,"x_max":626,"o":"m 489 496 l 489 564 q 360 688 489 688 q 261 657 301 688 q 192 560 221 626 l 82 610 q 367 790 176 790 q 470 774 424 790 q 553 728 517 757 q 601 659 586 699 q 615 554 615 619 l 615 164 q 616 101 615 125 q 618 60 617 76 q 622 35 619 47 q 626 0 624 24 l 507 0 l 494 107 q 387 10 443 40 q 263 -19 331 -19 q 176 -4 215 -19 q 108 39 136 11 q 65 105 81 67 q 49 189 49 143 q 107 339 49 282 q 292 432 165 396 l 375 456 q 430 472 404 464 q 489 496 456 481 m 489 229 l 489 403 q 469 393 478 397 q 450 385 460 389 q 428 378 440 382 q 400 369 417 375 l 335 349 q 211 286 249 321 q 174 193 174 251 q 206 108 174 140 q 292 76 239 76 q 422 129 361 76 q 471 184 453 157 q 489 229 489 211 m 160 833 l 258 1049 l 478 1049 l 579 833 l 471 833 l 371 1033 l 272 833 l 160 833 z "},"ã":{"ha":710,"x_min":49,"x_max":626,"o":"m 489 496 l 489 564 q 360 688 489 688 q 261 657 301 688 q 192 560 221 626 l 82 610 q 367 790 176 790 q 470 774 424 790 q 553 728 517 757 q 601 659 586 699 q 615 554 615 619 l 615 164 q 616 101 615 125 q 618 60 617 76 q 622 35 619 47 q 626 0 624 24 l 507 0 l 494 107 q 387 10 443 40 q 263 -19 331 -19 q 176 -4 215 -19 q 108 39 136 11 q 65 105 81 67 q 49 189 49 143 q 107 339 49 282 q 292 432 165 396 l 375 456 q 430 472 404 464 q 489 496 456 481 m 489 229 l 489 403 q 469 393 478 397 q 450 385 460 389 q 428 378 440 382 q 400 369 417 375 l 335 349 q 211 286 249 321 q 174 193 174 251 q 206 108 174 140 q 292 76 239 76 q 422 129 361 76 q 471 184 453 157 q 489 229 489 211 m 168 835 q 210 929 175 897 q 304 961 244 961 q 340 957 321 961 q 394 942 358 953 q 481 924 457 924 q 515 932 501 924 q 538 961 528 940 l 593 961 q 464 835 572 835 q 441 836 453 835 q 413 840 429 838 q 375 849 397 843 q 321 864 353 856 q 279 871 293 871 q 226 835 243 871 l 168 835 z "},"ä":{"ha":710,"x_min":49,"x_max":626,"o":"m 179 836 l 179 1019 l 299 1019 l 299 836 l 179 836 m 442 836 l 442 1019 l 563 1019 l 563 836 l 442 836 m 489 496 l 489 564 q 360 688 489 688 q 261 657 301 688 q 192 560 221 626 l 82 610 q 367 790 176 790 q 470 774 424 790 q 553 728 517 757 q 601 659 586 699 q 615 554 615 619 l 615 164 q 616 101 615 125 q 618 60 617 76 q 622 35 619 47 q 626 0 624 24 l 507 0 l 494 107 q 387 10 443 40 q 263 -19 331 -19 q 176 -4 215 -19 q 108 39 136 11 q 65 105 81 67 q 49 189 49 143 q 107 339 49 282 q 292 432 165 396 l 375 456 q 430 472 404 464 q 489 496 456 481 m 489 229 l 489 403 q 469 393 478 397 q 450 385 460 389 q 428 378 440 382 q 400 369 417 375 l 335 349 q 211 286 249 321 q 174 193 174 251 q 206 108 174 140 q 292 76 239 76 q 422 129 361 76 q 471 184 453 157 q 489 229 489 211 z "},"å":{"ha":710,"x_min":49,"x_max":626,"o":"m 489 496 l 489 551 q 360 674 489 674 q 192 547 249 674 l 82 596 q 367 775 175 775 q 471 760 424 775 q 553 715 518 746 q 601 646 588 686 q 615 540 615 606 l 615 164 q 616 109 615 131 q 617 71 617 88 q 620 38 618 54 q 626 0 622 22 l 507 0 l 494 106 q 386 9 442 39 q 263 -21 331 -21 q 175 -6 214 -21 q 108 38 136 10 q 64 103 79 65 q 49 189 49 142 q 107 339 49 282 q 292 432 165 396 l 375 456 q 431 473 404 464 q 489 496 458 482 m 489 403 q 469 393 478 397 q 450 385 460 389 q 428 378 440 382 q 400 369 417 375 q 358 356 375 361 q 335 349 342 351 q 298 335 315 342 q 265 322 281 329 q 174 193 174 282 q 206 108 174 140 q 293 75 239 75 q 422 128 361 75 q 471 183 453 156 q 489 228 489 210 l 489 403 m 236 938 q 274 1025 236 989 q 365 1061 311 1061 q 415 1051 392 1061 q 456 1025 439 1042 q 484 986 474 1008 q 494 938 494 964 q 484 890 494 913 q 456 850 474 867 q 415 824 439 833 q 365 814 392 814 q 274 850 311 814 q 236 938 236 886 m 364 1000 q 317 982 336 1000 q 299 938 299 964 q 318 895 299 914 q 365 876 338 876 q 413 894 393 876 q 432 938 432 913 q 412 982 432 964 q 364 1000 392 1000 z "},"æ":{"ha":1128,"x_min":36,"x_max":1079,"o":"m 476 506 l 476 563 q 442 657 476 624 q 346 690 407 690 q 179 560 231 690 l 71 610 q 188 747 119 703 q 353 790 256 790 q 526 729 464 790 q 545 708 538 721 q 563 672 553 696 q 786 792 640 792 q 997 692 921 792 q 1072 419 1072 593 q 1072 399 1072 411 q 1071 371 1072 386 l 603 371 l 600 353 q 653 158 600 231 q 792 85 706 85 q 968 229 906 85 l 1079 181 q 786 -18 976 -18 q 517 150 614 -18 q 394 22 457 63 q 253 -18 331 -18 q 165 -2 204 -18 q 97 42 125 14 q 52 109 68 69 q 36 196 36 149 q 59 294 36 249 q 122 372 82 340 q 190 411 151 396 q 289 443 228 426 l 367 464 q 424 482 400 474 q 476 506 447 490 m 478 221 l 478 413 q 456 402 464 406 q 442 396 449 399 q 424 389 435 393 q 389 378 413 385 q 314 353 344 363 q 265 336 283 343 q 161 197 161 292 q 193 109 161 142 q 281 76 225 76 q 363 99 321 76 q 443 161 404 121 q 478 221 478 196 m 785 693 q 661 632 708 693 q 604 456 614 571 l 947 456 l 947 478 q 903 634 947 575 q 785 693 858 693 z "},"ç":{"ha":686,"x_min":57,"x_max":651,"o":"m 642 558 l 525 529 q 371 690 488 690 q 238 608 286 690 q 189 378 189 525 q 236 159 189 236 q 369 82 283 82 q 443 99 410 82 q 496 147 476 117 q 517 188 507 167 q 538 239 526 208 l 651 199 q 368 -21 579 -21 q 238 6 296 -21 q 140 85 181 33 q 78 208 100 136 q 57 372 57 281 q 79 546 57 468 q 142 678 101 624 q 242 762 183 732 q 371 792 300 792 q 547 731 478 792 q 642 558 617 671 m 219 -233 l 317 -42 l 439 -42 l 315 -233 l 219 -233 z "},"è":{"ha":710,"x_min":57,"x_max":663,"o":"m 663 371 l 185 371 l 185 354 q 235 154 185 226 q 372 82 285 82 q 476 116 433 82 q 554 226 518 150 l 661 181 q 371 -19 575 -19 q 139 85 221 -19 q 57 376 57 189 q 78 549 57 472 q 141 680 100 626 q 240 763 182 733 q 369 792 297 792 q 586 686 510 792 q 663 385 663 581 l 663 371 m 369 693 q 243 631 290 693 q 189 456 196 568 l 533 456 l 533 468 q 489 633 533 572 q 369 693 444 693 m 208 1050 l 332 1050 l 432 835 l 310 835 l 208 1050 z "},"é":{"ha":710,"x_min":57,"x_max":663,"o":"m 663 371 l 185 371 l 185 354 q 235 154 185 226 q 372 82 285 82 q 476 116 433 82 q 554 226 518 150 l 661 181 q 371 -19 575 -19 q 139 85 221 -19 q 57 376 57 189 q 78 549 57 472 q 141 680 100 626 q 240 763 182 733 q 369 792 297 792 q 586 686 510 792 q 663 385 663 581 l 663 371 m 369 693 q 243 631 290 693 q 189 456 196 568 l 533 456 l 533 468 q 489 633 533 572 q 369 693 444 693 m 306 833 l 408 1049 l 529 1049 l 429 833 l 306 833 z "},"ê":{"ha":710,"x_min":57,"x_max":663,"o":"m 663 371 l 185 371 l 185 354 q 235 154 185 226 q 372 82 285 82 q 476 116 433 82 q 554 226 518 150 l 661 181 q 371 -19 575 -19 q 139 85 221 -19 q 57 376 57 189 q 78 549 57 472 q 141 680 100 626 q 240 763 182 733 q 369 792 297 792 q 586 686 510 792 q 663 385 663 581 l 663 371 m 369 693 q 243 631 290 693 q 189 456 196 568 l 533 456 l 533 468 q 489 633 533 572 q 369 693 444 693 m 161 833 l 260 1049 l 479 1049 l 581 833 l 472 833 l 372 1033 l 274 833 l 161 833 z "},"ë":{"ha":710,"x_min":57,"x_max":663,"o":"m 663 371 l 185 371 l 185 354 q 235 154 185 226 q 372 82 285 82 q 476 116 433 82 q 554 226 518 150 l 661 181 q 371 -19 575 -19 q 139 85 221 -19 q 57 376 57 189 q 78 549 57 472 q 141 680 100 626 q 240 763 182 733 q 369 792 297 792 q 586 686 510 792 q 663 385 663 581 l 663 371 m 369 693 q 243 631 290 693 q 189 456 196 568 l 533 456 l 533 468 q 489 633 533 572 q 369 693 444 693 m 172 833 l 172 1015 l 293 1015 l 293 833 l 172 833 m 438 833 l 438 1015 l 560 1015 l 560 833 l 438 833 z "},"ì":{"ha":319,"x_min":-1,"x_max":224,"o":"m 96 0 l 96 771 l 224 771 l 224 0 l 96 0 m -1 1050 l 122 1050 l 222 835 l 100 835 l -1 1050 z "},"í":{"ha":319,"x_min":96,"x_max":329,"o":"m 96 0 l 96 771 l 224 771 l 224 0 l 96 0 m 106 833 l 208 1049 l 329 1049 l 229 833 l 106 833 z "},"î":{"ha":319,"x_min":-43,"x_max":376,"o":"m 96 0 l 96 771 l 224 771 l 224 0 l 96 0 m -43 833 l 56 1049 l 275 1049 l 376 833 l 268 833 l 168 1033 l 69 833 l -43 833 z "},"ï":{"ha":319,"x_min":-28,"x_max":360,"o":"m 96 0 l 96 771 l 224 771 l 224 0 l 96 0 m -28 833 l -28 1015 l 93 1015 l 93 833 l -28 833 m 238 833 l 238 1015 l 360 1015 l 360 833 l 238 833 z "},"ñ":{"ha":754,"x_min":96,"x_max":658,"o":"m 96 0 l 96 771 l 222 771 l 222 667 q 333 763 279 733 q 449 793 386 793 q 542 773 499 793 q 614 719 586 753 q 635 687 626 704 q 649 647 643 669 q 656 597 654 625 q 658 532 658 569 l 658 0 l 532 0 l 532 511 q 526 585 532 563 q 489 662 521 633 q 407 690 457 690 q 224 557 301 690 l 224 0 l 96 0 m 183 835 q 225 929 190 897 q 319 961 260 961 q 355 957 336 961 q 410 942 374 953 q 496 924 472 924 q 530 932 517 924 q 553 961 543 940 l 608 961 q 479 835 588 835 q 456 836 468 835 q 428 840 444 838 q 390 849 413 843 q 336 864 368 856 q 294 871 308 871 q 242 835 258 871 l 183 835 z "},"ò":{"ha":744,"x_min":57,"x_max":688,"o":"m 57 386 q 79 554 57 479 q 142 682 101 629 q 241 763 183 735 q 371 792 299 792 q 501 763 443 792 q 601 682 560 735 q 665 554 643 629 q 688 386 688 479 q 665 217 688 292 q 601 89 643 142 q 501 8 560 36 q 371 -21 443 -21 q 241 8 299 -21 q 142 89 183 36 q 79 217 101 142 q 57 386 57 292 m 371 689 q 234 611 282 689 q 186 386 186 533 q 234 159 186 238 q 371 81 282 81 q 508 159 460 81 q 556 386 556 238 q 508 611 556 533 q 371 689 460 689 m 224 1050 l 347 1050 l 447 835 l 325 835 l 224 1050 z "},"ó":{"ha":744,"x_min":57,"x_max":688,"o":"m 57 386 q 79 554 57 479 q 142 682 101 629 q 241 763 183 735 q 371 792 299 792 q 501 763 443 792 q 601 682 560 735 q 665 554 643 629 q 688 386 688 479 q 665 217 688 292 q 601 89 643 142 q 501 8 560 36 q 371 -21 443 -21 q 241 8 299 -21 q 142 89 183 36 q 79 217 101 142 q 57 386 57 292 m 371 689 q 234 611 282 689 q 186 386 186 533 q 234 159 186 238 q 371 81 282 81 q 508 159 460 81 q 556 386 556 238 q 508 611 556 533 q 371 689 460 689 m 311 833 l 414 1049 l 535 1049 l 435 833 l 311 833 z "},"ô":{"ha":744,"x_min":57,"x_max":688,"o":"m 57 386 q 79 554 57 479 q 142 682 101 629 q 241 763 183 735 q 371 792 299 792 q 501 763 443 792 q 601 682 560 735 q 665 554 643 629 q 688 386 688 479 q 665 217 688 292 q 601 89 643 142 q 501 8 560 36 q 371 -21 443 -21 q 241 8 299 -21 q 142 89 183 36 q 79 217 101 142 q 57 386 57 292 m 371 689 q 234 611 282 689 q 186 386 186 533 q 234 159 186 238 q 371 81 282 81 q 508 159 460 81 q 556 386 556 238 q 508 611 556 533 q 371 689 460 689 m 167 833 l 265 1049 l 485 1049 l 586 833 l 478 833 l 378 1033 l 279 833 l 167 833 z "},"õ":{"ha":744,"x_min":57,"x_max":688,"o":"m 57 386 q 79 554 57 479 q 142 682 101 629 q 241 763 183 735 q 371 792 299 792 q 501 763 443 792 q 601 682 560 735 q 665 554 643 629 q 688 386 688 479 q 665 217 688 292 q 601 89 643 142 q 501 8 560 36 q 371 -21 443 -21 q 241 8 299 -21 q 142 89 183 36 q 79 217 101 142 q 57 386 57 292 m 371 689 q 234 611 282 689 q 186 386 186 533 q 234 159 186 238 q 371 81 282 81 q 508 159 460 81 q 556 386 556 238 q 508 611 556 533 q 371 689 460 689 m 175 835 q 217 929 182 897 q 311 961 251 961 q 347 957 328 961 q 401 942 365 953 q 488 924 464 924 q 522 932 508 924 q 544 961 535 940 l 600 961 q 471 835 579 835 q 448 836 460 835 q 420 840 436 838 q 382 849 404 843 q 328 864 360 856 q 286 871 300 871 q 233 835 250 871 l 175 835 z "},"ö":{"ha":744,"x_min":57,"x_max":688,"o":"m 183 838 l 183 1019 l 304 1019 l 304 838 l 183 838 m 444 838 l 444 1019 l 567 1019 l 567 838 l 444 838 m 57 386 q 79 554 57 479 q 142 682 101 629 q 241 763 183 735 q 371 792 299 792 q 501 763 443 792 q 601 682 560 735 q 665 554 643 629 q 688 386 688 479 q 665 217 688 292 q 601 89 643 142 q 501 8 560 36 q 371 -21 443 -21 q 241 8 299 -21 q 142 89 183 36 q 79 217 101 142 q 57 386 57 292 m 371 689 q 234 611 282 689 q 186 386 186 533 q 234 159 186 238 q 371 81 282 81 q 508 159 460 81 q 556 386 556 238 q 508 611 556 533 q 371 689 460 689 z "},"÷":{"ha":825,"x_min":60,"x_max":703,"o":"m 325 196 q 382 219 351 219 q 438 197 415 219 q 460 140 460 175 q 436 85 460 107 q 382 61 415 61 q 325 85 349 61 q 303 140 303 110 q 325 196 303 174 m 703 375 l 703 281 l 60 281 l 60 375 l 703 375 m 325 569 q 382 593 349 590 q 436 569 415 593 q 460 514 460 546 q 436 458 460 481 q 382 435 415 435 q 325 458 349 435 q 303 514 303 481 q 325 569 303 547 z "},"ø":{"ha":749,"x_min":57,"x_max":692,"o":"m 57 25 l 126 110 q 112 131 117 122 q 104 146 107 139 q 74 247 85 188 q 63 374 63 307 q 85 543 63 467 q 149 674 108 619 q 249 757 190 728 q 378 786 307 786 q 515 754 451 786 q 550 733 535 743 q 590 701 565 724 l 646 771 l 692 731 l 628 649 q 639 628 635 635 q 647 611 643 621 q 674 514 664 569 q 683 400 683 458 q 660 228 683 306 q 596 96 638 151 q 495 10 554 40 q 365 -19 436 -19 q 299 -11 332 -19 q 238 11 267 -3 q 203 31 218 21 q 165 63 189 42 l 104 -17 l 57 25 m 536 540 l 240 150 q 372 79 294 79 q 508 158 460 79 q 557 376 557 236 q 552 460 557 424 q 536 540 547 496 m 214 219 l 511 604 q 455 667 492 644 q 371 690 418 690 q 235 610 283 690 q 188 382 188 529 q 193 294 188 328 q 214 219 199 261 z "},"ù":{"ha":756,"x_min":96,"x_max":660,"o":"m 532 110 q 426 13 479 43 q 307 -17 374 -17 q 216 1 258 -17 q 146 51 174 18 q 107 126 118 83 q 96 243 96 168 l 96 771 l 222 771 l 222 258 q 226 182 222 208 q 266 112 235 138 q 346 86 297 86 q 442 118 397 86 q 532 218 488 150 l 532 771 l 660 771 l 660 0 l 532 0 l 532 110 m 247 1050 l 371 1050 l 471 835 l 349 835 l 247 1050 z "},"ú":{"ha":756,"x_min":96,"x_max":660,"o":"m 532 110 q 426 13 479 43 q 307 -17 374 -17 q 216 1 258 -17 q 146 51 174 18 q 107 126 118 83 q 96 243 96 168 l 96 771 l 222 771 l 222 258 q 226 182 222 208 q 266 112 235 138 q 346 86 297 86 q 442 118 397 86 q 532 218 488 150 l 532 771 l 660 771 l 660 0 l 532 0 l 532 110 m 342 833 l 444 1049 l 565 1049 l 465 833 l 342 833 z "},"û":{"ha":756,"x_min":96,"x_max":660,"o":"m 532 110 q 426 13 479 43 q 307 -17 374 -17 q 216 1 258 -17 q 146 51 174 18 q 107 126 118 83 q 96 243 96 168 l 96 771 l 222 771 l 222 258 q 226 182 222 208 q 266 112 235 138 q 346 86 297 86 q 442 118 397 86 q 532 218 488 150 l 532 771 l 660 771 l 660 0 l 532 0 l 532 110 m 185 833 l 283 1049 l 503 1049 l 604 833 l 496 833 l 396 1033 l 297 833 l 185 833 z "},"ü":{"ha":756,"x_min":96,"x_max":660,"o":"m 532 110 q 426 13 479 43 q 307 -17 374 -17 q 216 1 258 -17 q 146 51 174 18 q 107 126 118 83 q 96 243 96 168 l 96 771 l 222 771 l 222 258 q 226 182 222 208 q 266 112 235 138 q 346 86 297 86 q 442 118 397 86 q 532 218 488 150 l 532 771 l 660 771 l 660 0 l 532 0 l 532 110 m 206 836 l 206 1018 l 326 1018 l 326 836 l 206 836 m 471 836 l 471 1018 l 593 1018 l 593 836 l 471 836 z "},"ÿ":{"ha":608,"x_min":-15,"x_max":615,"o":"m -15 771 l 119 771 l 274 289 q 284 253 279 269 q 293 222 289 238 q 301 190 297 207 q 308 153 304 174 q 314 191 311 175 q 320 222 317 207 q 328 253 324 238 q 339 290 332 269 l 482 771 l 615 771 l 332 -85 q 235 -225 300 -181 q 58 -269 169 -269 q 26 -268 42 -269 q -12 -264 11 -267 l 0 -167 q 26 -169 15 -169 q 50 -169 38 -169 q 117 -160 88 -169 q 168 -129 146 -151 q 208 -72 190 -107 q 243 18 226 -36 l -15 771 m 126 833 l 126 1015 l 247 1015 l 247 833 l 126 833 m 392 833 l 392 1015 l 514 1015 l 514 833 l 392 833 z "},"ı":{"ha":319,"x_min":96,"x_max":224,"o":"m 96 0 l 96 771 l 224 771 l 224 0 l 96 0 z "},"Œ":{"ha":1279,"x_min":57,"x_max":1257,"o":"m 1257 0 l 699 0 q 633 -1 654 0 q 593 -4 611 -1 l 549 -12 q 506 -18 526 -17 q 461 -19 485 -19 q 292 15 367 -19 q 165 117 217 50 q 85 278 113 183 q 57 494 57 374 q 86 710 57 613 q 168 876 115 807 q 295 983 221 944 q 460 1021 369 1021 q 497 1019 478 1021 q 538 1015 515 1018 q 580 1007 565 1010 q 597 1004 594 1004 q 613 1003 604 1004 q 636 1003 622 1003 q 668 1001 650 1001 q 704 1001 686 1001 l 1240 1001 l 1240 886 l 776 886 l 776 574 l 1117 574 l 1117 458 l 776 458 l 776 117 l 1257 117 l 1257 0 m 606 147 q 633 175 625 167 q 640 186 640 183 l 640 819 q 608 863 640 833 q 590 878 597 871 q 576 889 583 885 q 526 911 556 903 q 464 919 496 919 q 354 890 403 919 q 272 806 306 861 q 221 673 239 751 q 203 497 203 594 q 271 197 203 303 q 464 90 339 90 q 525 97 496 90 q 572 118 554 104 q 606 147 586 131 z "},"œ":{"ha":1208,"x_min":57,"x_max":1161,"o":"m 624 635 q 723 750 660 710 q 869 790 786 790 q 943 780 907 790 q 1011 750 979 769 q 1068 703 1043 731 q 1108 644 1093 676 q 1142 536 1129 600 q 1154 408 1154 472 l 1154 369 l 686 369 l 686 335 q 699 233 686 279 q 738 154 713 188 q 797 103 763 121 q 872 85 831 85 q 1050 228 986 85 l 1161 179 q 868 -19 1065 -19 q 618 131 694 -19 q 368 -21 542 -21 q 240 7 297 -21 q 141 86 182 35 q 78 210 100 138 q 57 375 57 283 q 80 544 57 468 q 144 676 103 621 q 245 760 186 731 q 376 790 304 790 q 524 751 461 790 q 624 635 588 711 m 372 688 q 235 606 285 688 q 185 382 185 525 q 233 158 185 238 q 369 79 282 79 q 508 157 460 79 q 556 383 556 235 q 508 609 556 531 q 372 688 460 688 m 867 690 q 742 630 788 690 q 688 453 697 569 l 1029 453 q 1021 532 1026 499 q 1004 594 1015 565 q 950 664 989 638 q 867 690 911 690 z "},"Š":{"ha":778,"x_min":19,"x_max":733,"o":"m 19 229 l 143 282 q 393 96 215 96 q 538 143 483 96 q 592 267 592 190 q 538 382 592 338 q 512 399 525 392 q 478 415 499 407 q 429 433 458 424 q 357 456 400 443 q 305 472 326 465 q 267 483 283 478 q 238 494 251 489 q 210 508 225 500 q 61 738 61 585 q 85 852 61 800 q 151 942 108 904 q 251 1001 193 981 q 381 1022 310 1022 q 467 1013 425 1022 q 540 989 508 1004 q 658 892 611 956 q 684 849 674 869 q 707 792 694 829 l 593 744 q 512 875 567 831 q 376 919 457 919 q 247 874 297 919 q 196 758 196 829 q 236 658 196 699 q 260 638 247 647 q 290 622 272 629 q 310 613 300 617 q 335 603 321 608 q 368 591 349 597 q 418 575 388 585 q 467 560 447 567 q 503 547 488 553 q 533 535 519 540 q 561 524 546 529 q 733 281 733 451 q 708 158 733 214 q 638 63 683 103 q 528 1 592 24 q 389 -21 465 -21 q 217 12 290 -21 q 85 113 143 44 q 65 137 74 125 q 50 162 57 149 q 35 191 43 175 q 19 229 28 207 m 175 1329 l 288 1329 l 386 1128 l 486 1328 l 594 1328 l 493 1114 l 274 1114 l 175 1329 z "},"š":{"ha":618,"x_min":33,"x_max":585,"o":"m 33 154 l 117 219 q 314 86 181 86 q 419 119 379 86 q 458 208 458 153 q 421 289 458 256 q 395 304 408 297 q 363 318 382 311 q 337 328 351 324 q 286 346 322 333 q 244 360 261 354 q 215 370 228 365 q 192 379 203 375 q 169 390 182 383 q 57 568 57 447 q 76 658 57 617 q 127 728 94 699 q 205 775 160 758 q 304 792 250 792 q 390 780 349 792 q 465 746 432 768 q 516 704 494 726 q 561 646 538 682 l 485 575 q 307 690 419 690 q 213 660 249 690 q 178 582 178 631 q 243 489 178 519 q 253 485 247 486 q 264 481 258 483 q 290 469 276 475 q 347 450 304 464 q 389 435 372 442 q 418 424 406 429 q 441 413 431 418 q 463 403 451 408 q 585 218 585 335 q 565 122 585 165 q 510 47 546 78 q 424 -2 474 15 q 314 -19 374 -19 q 33 154 118 -19 m 97 1050 l 210 1050 l 308 849 l 408 1049 l 517 1049 l 415 835 l 196 835 l 97 1050 z "},"Ÿ":{"ha":708,"x_min":-33,"x_max":740,"o":"m 175 1113 l 175 1294 l 296 1294 l 296 1113 l 175 1113 m 440 1113 l 440 1294 l 563 1294 l 563 1113 l 440 1113 m -33 1001 l 115 1001 l 313 640 q 329 607 322 621 q 340 581 336 593 q 347 554 344 568 q 353 519 350 540 q 358 554 356 539 q 365 583 361 569 q 376 610 369 596 q 393 640 383 624 l 597 1001 l 740 1001 l 418 429 l 418 0 l 282 0 l 282 429 l -33 1001 z "},"Ž":{"ha":717,"x_min":29,"x_max":690,"o":"m 29 0 l 29 96 l 482 828 q 513 872 499 856 q 554 908 528 889 q 494 893 519 897 q 444 889 469 889 l 61 889 l 61 1001 l 683 1001 l 683 906 l 228 171 q 160 90 203 132 q 216 105 190 101 q 267 108 242 108 l 690 108 l 690 0 l 29 0 m 178 1329 l 290 1329 l 389 1128 l 489 1328 l 597 1328 l 496 1114 l 276 1114 l 178 1329 z "},"ž":{"ha":590,"x_min":29,"x_max":568,"o":"m 29 0 l 29 88 l 374 611 q 401 646 385 629 q 440 682 417 663 q 346 664 388 664 l 74 664 l 74 771 l 568 771 l 568 682 l 235 168 q 202 127 219 144 q 160 90 185 110 q 217 103 192 100 q 271 107 243 107 l 564 107 l 564 0 l 29 0 m 121 1050 l 233 1050 l 332 849 l 432 1049 l 540 1049 l 439 835 l 219 835 l 121 1050 z "},"ƒ":{"ha":532,"x_min":-82,"x_max":532,"o":"m -82 -256 l -74 -156 q -48 -162 -58 -161 q -26 -164 -37 -164 q 36 -157 11 -164 q 77 -133 61 -150 q 101 -85 93 -115 q 115 -7 110 -54 l 190 671 l 72 671 l 81 763 l 201 763 l 208 815 q 219 885 214 858 q 229 929 224 911 q 242 960 235 947 q 263 989 250 974 q 340 1045 292 1024 q 439 1067 389 1067 q 482 1064 460 1067 q 532 1056 504 1061 l 522 960 q 492 963 504 963 q 464 964 479 964 q 368 931 397 964 q 333 808 339 897 l 331 763 l 482 763 l 474 672 l 319 672 l 242 -14 q 233 -79 238 -53 q 222 -124 228 -106 q 206 -157 215 -143 q 185 -187 197 -171 q 109 -246 150 -228 q 6 -264 68 -264 q -37 -262 -18 -264 q -82 -256 -56 -261 z "},"ˆ":{"ha":419,"x_min":0,"x_max":419,"o":"m 0 833 l 99 1049 l 318 1049 l 419 833 l 311 833 l 211 1033 l 113 833 l 0 833 z "},"ˇ":{"ha":419,"x_min":0,"x_max":419,"o":"m 0 1050 l 113 1050 l 211 849 l 311 1049 l 419 1049 l 318 835 l 99 835 l 0 1050 z "},"¯":{"ha":419,"x_min":7,"x_max":413,"o":"m 7 851 l 7 951 l 413 951 l 413 851 l 7 851 z "},"˘":{"ha":401,"x_min":4,"x_max":393,"o":"m 4 1017 l 85 1017 q 133 944 108 964 q 197 925 157 925 q 267 944 242 925 q 317 1017 292 964 l 393 1017 q 378 960 386 985 q 358 915 369 935 q 294 856 339 879 q 199 832 249 832 q 117 849 154 832 q 74 873 92 860 q 44 906 57 886 q 22 952 31 925 q 4 1017 13 979 z "},"˙":{"ha":128,"x_min":0,"x_max":128,"o":"m 0 838 l 0 1019 l 128 1019 l 128 838 l 0 838 z "},"˚":{"ha":346,"x_min":43,"x_max":301,"o":"m 43 933 q 81 1021 43 985 q 172 1057 118 1057 q 222 1047 199 1057 q 263 1021 246 1038 q 291 982 281 1004 q 301 933 301 960 q 291 885 301 908 q 263 846 281 863 q 222 819 246 829 q 172 810 199 810 q 81 846 118 810 q 43 933 43 882 m 171 996 q 124 978 143 996 q 106 933 106 960 q 125 891 106 910 q 172 872 144 872 q 219 890 200 872 q 239 933 239 908 q 219 978 239 960 q 171 996 199 996 z "},"˛":{"ha":238,"x_min":50,"x_max":186,"o":"m 50 0 l 50 169 l 186 169 l 186 0 l 50 0 z "},"˜":{"ha":425,"x_min":0,"x_max":425,"o":"m 0 835 q 42 929 7 897 q 136 961 76 961 q 172 957 153 961 q 226 942 190 953 q 313 924 289 924 q 347 932 333 924 q 369 961 360 940 l 425 961 q 296 835 404 835 q 273 836 285 835 q 245 840 261 838 q 207 849 229 843 q 153 864 185 856 q 111 871 125 871 q 58 835 75 871 l 0 835 z "},"˝":{"ha":276,"x_min":61,"x_max":285,"o":"m 61 833 l 164 1049 l 285 1049 l 185 833 l 61 833 z "},"Ω":{"ha":1153,"x_min":69,"x_max":997,"o":"m 653 125 l 824 125 q 917 149 890 125 q 946 244 942 174 l 978 244 l 978 0 l 600 0 l 600 250 q 771 356 707 271 q 833 567 833 440 q 753 800 833 714 q 533 888 669 888 q 315 800 396 888 q 233 567 233 714 q 294 356 233 439 q 467 250 354 274 l 467 0 l 89 0 l 89 244 l 121 244 q 149 150 125 174 q 243 125 174 125 l 414 125 l 414 207 q 160 331 250 236 q 69 567 69 425 q 197 836 69 735 q 533 938 326 938 q 869 836 740 938 q 997 567 994 735 q 907 331 997 428 q 653 207 819 239 l 653 125 z "},"π":{"ha":825,"x_min":24,"x_max":731,"o":"m 575 517 q 561 518 567 517 q 560 504 561 513 q 560 485 560 496 q 556 359 557 410 q 556 276 556 308 l 556 221 q 567 76 556 104 q 610 46 579 46 q 667 86 646 44 q 690 210 686 125 l 725 210 l 725 203 q 689 39 725 92 q 578 -14 653 -14 q 467 40 499 -15 q 435 269 435 94 q 435 307 435 281 q 436 378 435 333 q 440 522 439 467 q 411 522 428 522 q 371 524 394 522 q 322 524 349 524 q 264 526 296 525 q 256 258 264 365 q 232 96 249 151 q 121 -14 201 -12 q 47 26 72 -14 q 24 146 24 67 l 24 172 l 57 172 q 61 140 58 153 q 71 117 64 126 q 108 100 83 100 q 189 186 167 100 q 217 526 213 274 l 186 526 q 103 508 133 526 q 65 453 74 489 l 33 453 q 86 586 38 546 q 254 624 133 624 q 396 619 276 624 q 607 615 513 615 q 675 625 654 615 q 699 654 697 635 l 699 656 l 731 656 l 731 651 q 697 549 731 582 q 594 517 667 518 l 575 517 z "},"–":{"ha":760,"x_min":43,"x_max":715,"o":"m 43 443 l 43 553 l 715 553 l 715 443 l 43 443 z "},"—":{"ha":1383,"x_min":42,"x_max":1342,"o":"m 42 460 l 42 563 l 1342 563 l 1342 460 l 42 460 z "},"‘":{"ha":247,"x_min":50,"x_max":197,"o":"m 50 604 l 50 774 l 156 1000 l 197 1000 l 146 778 l 188 779 l 188 604 l 50 604 z "},"’":{"ha":246,"x_min":44,"x_max":196,"o":"m 44 608 l 99 829 l 57 829 l 57 1001 l 196 1001 l 196 833 l 90 608 l 44 608 z "},"‚":{"ha":242,"x_min":44,"x_max":192,"o":"m 44 -222 l 96 0 l 53 0 l 53 171 l 192 171 l 192 4 l 93 -222 l 44 -222 z "},"“":{"ha":444,"x_min":50,"x_max":400,"o":"m 50 604 l 50 774 l 156 1000 l 197 1001 l 146 779 l 188 779 l 188 604 l 50 604 m 253 604 l 253 774 l 357 1000 l 400 1001 l 347 779 l 389 779 l 389 604 l 253 604 z "},"”":{"ha":446,"x_min":44,"x_max":396,"o":"m 44 608 l 97 829 l 56 829 l 56 1001 l 196 1001 l 196 833 l 89 608 l 44 608 m 246 608 l 299 829 l 257 829 l 257 1001 l 396 1001 l 396 833 l 290 608 l 246 608 z "},"„":{"ha":444,"x_min":44,"x_max":393,"o":"m 44 -222 l 96 0 l 53 0 l 53 171 l 192 171 l 192 4 l 93 -222 l 44 -222 m 246 -222 l 299 0 l 256 0 l 256 171 l 393 171 l 393 4 l 294 -222 l 246 -222 z "},"†":{"ha":858,"x_min":35,"x_max":825,"o":"m 35 556 l 35 683 l 364 682 l 364 1001 l 496 1001 l 496 682 l 825 683 l 825 556 l 499 557 l 499 -251 l 360 -251 l 360 557 l 35 556 z "},"•":{"ha":236,"x_min":50,"x_max":186,"o":"m 50 304 l 50 476 l 186 478 l 186 304 l 50 304 z "},"…":{"ha":1383,"x_min":144,"x_max":1244,"o":"m 144 74 q 170 135 144 110 q 232 161 196 161 q 294 135 268 161 q 319 74 319 110 q 294 12 319 38 q 232 -14 268 -14 q 170 12 196 -14 q 144 74 144 38 m 607 74 q 633 135 607 110 q 694 161 658 161 q 756 135 731 161 q 782 74 782 110 q 756 12 782 38 q 694 -14 731 -14 q 633 12 658 -14 q 607 74 607 38 m 1069 74 q 1095 135 1069 110 q 1157 161 1121 161 q 1219 135 1193 161 q 1244 74 1244 110 q 1219 12 1244 38 q 1157 -14 1193 -14 q 1095 12 1121 -14 q 1069 74 1069 38 z "},"‰":{"ha":1339,"x_min":43,"x_max":1296,"o":"m 43 758 q 57 864 43 817 q 96 946 71 911 q 156 999 121 981 q 233 1018 190 1018 q 310 999 275 1018 q 369 945 344 979 q 408 863 394 911 q 422 757 422 815 q 408 651 422 699 q 370 569 394 604 q 311 516 346 535 q 235 497 276 497 q 156 516 192 497 q 96 569 121 535 q 57 652 71 604 q 43 758 43 700 m 150 0 l 665 1001 l 757 1001 l 246 0 l 150 0 m 485 246 q 499 351 485 304 q 538 433 513 399 q 597 487 563 468 q 672 506 631 506 q 749 486 714 506 q 808 432 783 467 q 846 349 832 397 q 860 244 860 301 q 846 138 860 186 q 808 56 832 90 q 749 3 783 22 q 674 -17 715 -17 q 597 3 632 -17 q 538 57 563 22 q 499 140 513 92 q 485 246 485 188 m 921 246 q 935 351 921 304 q 973 433 949 399 q 1031 487 997 468 q 1107 506 1065 506 q 1183 486 1149 506 q 1243 432 1218 467 q 1282 349 1268 397 q 1296 244 1296 301 q 1282 138 1296 186 q 1243 56 1268 90 q 1184 3 1218 22 q 1108 -17 1150 -17 q 1032 3 1067 -17 q 973 57 997 22 q 935 140 949 92 q 921 246 921 188 m 672 419 q 586 246 586 419 q 674 71 586 71 q 761 243 761 71 q 672 419 761 419 m 233 929 q 166 885 189 929 q 143 758 143 840 q 167 631 143 676 q 233 586 192 586 q 299 631 276 586 q 322 756 322 675 q 299 884 322 839 q 233 929 276 929 m 1107 419 q 1019 246 1019 419 q 1108 71 1019 71 q 1196 242 1196 71 q 1107 419 1196 419 z "},"‹":{"ha":367,"x_min":43,"x_max":322,"o":"m 43 388 l 246 693 l 317 681 l 179 389 l 322 97 l 247 82 l 43 388 z "},"›":{"ha":363,"x_min":43,"x_max":318,"o":"m 43 96 l 188 389 l 44 682 l 118 696 l 318 388 l 115 82 l 43 96 z "},"™":{"ha":1094,"x_min":65,"x_max":947,"o":"m 65 931 l 65 1000 l 367 1000 l 367 931 l 254 931 l 254 500 l 176 500 l 176 931 l 65 931 m 350 500 l 446 1013 l 488 1013 l 626 696 q 642 650 638 668 q 649 608 647 632 q 655 652 650 632 q 671 696 660 672 l 810 1013 l 851 1013 l 947 500 l 869 500 l 819 792 l 817 807 l 815 819 q 817 868 813 846 q 810 847 814 858 q 803 819 807 835 l 796 801 l 794 794 l 663 489 l 635 489 l 503 794 l 500 804 l 494 821 q 487 846 490 835 q 481 868 483 857 q 482 819 485 846 l 481 807 l 478 792 l 428 500 l 350 500 z "},"∂":{"ha":742,"x_min":86,"x_max":606,"o":"m 435 496 q 497 399 474 467 q 510 481 506 429 q 514 604 514 531 q 492 779 514 722 q 426 836 471 836 q 357 788 401 836 q 279 739 314 740 q 242 751 256 739 q 232 765 235 757 q 228 783 229 772 q 268 853 228 825 q 369 882 310 882 q 542 782 476 883 q 606 510 606 679 q 517 132 606 283 q 297 -18 426 -18 q 144 53 203 -18 q 101 136 115 89 q 86 243 88 183 q 160 443 86 357 q 333 528 232 526 q 435 496 394 528 m 443 440 q 356 485 414 485 q 235 401 282 485 q 201 304 211 360 q 189 178 190 249 q 219 56 189 99 q 306 13 249 13 q 426 97 379 13 q 474 311 471 182 q 466 385 474 354 q 443 440 458 417 z "},"∆":{"ha":919,"x_min":29,"x_max":826,"o":"m 443 933 l 826 0 l 29 0 l 413 933 l 443 933 m 388 700 l 128 63 l 646 63 l 388 700 z "},"∏":{"ha":1236,"x_min":42,"x_max":1107,"o":"m 42 -244 l 164 -244 l 164 978 l 42 978 l 42 1033 l 1107 1033 l 1107 978 l 985 978 l 985 -244 l 1107 -244 l 1107 -300 l 740 -300 l 740 -244 l 857 -244 l 857 978 l 292 978 l 292 -244 l 408 -244 l 408 -300 l 42 -300 l 42 -244 z "},"∑":{"ha":1071,"x_min":50,"x_max":918,"o":"m 822 1013 q 858 893 846 994 l 879 714 l 818 714 q 700 914 774 860 q 465 968 626 968 l 282 968 l 719 369 l 242 -178 l 501 -178 q 740 -135 671 -178 q 856 28 811 -90 l 918 28 l 876 -153 l 874 -162 q 818 -265 854 -231 q 719 -300 782 -300 l 50 -300 l 590 319 l 69 1033 l 708 1033 q 822 1013 799 1033 z "},"·":{"ha":236,"x_min":50,"x_max":186,"o":"m 50 304 l 50 476 l 186 478 l 186 304 l 50 304 z "},"√":{"ha":825,"x_min":-19,"x_max":825,"o":"m 825 1126 l 825 1061 l 746 1061 l 343 -28 l 299 -28 l 82 571 l -3 540 l -19 594 l 172 661 l 346 181 l 696 1126 l 825 1126 z "},"∞":{"ha":1071,"x_min":74,"x_max":915,"o":"m 597 200 q 508 331 550 240 q 408 200 463 244 q 290 158 356 158 q 138 232 201 158 q 74 414 74 307 q 131 600 74 529 q 276 672 186 669 q 392 631 342 672 q 482 500 440 590 q 579 629 525 586 q 700 672 632 672 q 853 599 788 672 q 915 417 915 525 q 860 229 915 301 q 714 158 803 158 q 597 200 647 158 m 357 285 q 458 454 399 326 q 376 550 422 518 q 271 583 331 583 q 154 535 200 583 q 108 410 111 489 q 150 286 108 333 q 256 239 190 239 q 357 285 311 239 m 629 542 q 532 376 583 492 q 613 279 565 311 q 719 247 658 247 q 836 296 790 246 q 882 421 879 342 q 840 544 882 499 q 729 592 799 592 q 629 542 676 592 z "},"∫":{"ha":411,"x_min":-125,"x_max":506,"o":"m 278 1008 q 393 1051 331 1051 q 474 1025 443 1051 q 506 958 503 1001 q 488 910 506 931 q 438 892 469 892 q 376 936 397 890 q 336 981 356 981 q 257 550 267 981 q 253 414 254 461 q 244 237 250 315 q 231 96 239 158 q 212 -11 222 35 q 188 -89 201 -57 q 101 -208 154 -165 q -12 -251 47 -251 q -93 -225 -61 -251 q -125 -158 -122 -201 q -107 -110 -125 -128 q -57 -93 -90 -93 q 4 -136 -17 -93 q 46 -181 25 -179 q 125 269 110 -181 q 126 336 126 307 q 128 386 126 365 q 149 701 135 581 q 193 889 165 824 q 278 1008 226 965 z "},"≈":{"ha":825,"x_min":21,"x_max":742,"o":"m 142 213 q 21 139 96 193 l 21 246 q 140 307 89 289 q 244 326 194 326 q 316 319 276 328 q 404 293 356 310 q 488 269 453 276 q 542 260 522 261 q 626 281 581 260 q 742 353 674 301 l 742 244 q 633 186 683 204 q 585 173 610 176 q 535 168 560 169 q 390 201 490 168 q 229 233 290 233 q 142 213 189 233 m 144 379 q 21 304 101 361 l 21 411 q 81 446 53 431 q 138 471 110 461 q 190 485 165 481 q 243 490 215 490 q 315 483 275 490 q 404 458 354 475 q 488 434 453 443 q 542 425 522 425 q 626 444 579 425 q 742 517 671 465 l 742 410 q 632 351 685 371 q 535 333 586 333 q 390 367 488 333 q 236 399 290 399 q 144 379 188 399 z "},"≠":{"ha":825,"x_min":63,"x_max":700,"o":"m 678 569 l 574 467 l 700 467 l 700 378 l 493 378 l 392 278 l 700 278 l 700 189 l 310 189 l 146 25 l 86 86 l 189 189 l 63 189 l 63 278 l 271 278 l 372 378 l 63 378 l 63 467 l 453 467 l 617 631 l 678 569 z "},"≤":{"ha":825,"x_min":60,"x_max":703,"o":"m 703 119 l 703 25 l 60 25 l 60 119 l 703 119 m 703 539 l 225 389 l 703 240 l 703 143 l 61 344 l 61 435 l 703 636 l 703 539 z "},"≥":{"ha":825,"x_min":60,"x_max":703,"o":"m 703 119 l 703 25 l 60 25 l 60 119 l 703 119 m 703 435 l 703 344 l 60 143 l 60 240 l 538 389 l 60 539 l 60 636 l 703 435 z "},"◊":{"ha":742,"x_min":4,"x_max":682,"o":"m 4 401 l 343 1121 l 682 401 l 343 -324 l 4 401 m 604 401 l 343 956 l 82 401 l 343 -158 l 604 401 z "},"":{"ha":1186,"x_min":75,"x_max":1021,"o":"m 574 824 q 567 825 569 824 q 565 835 567 831 l 565 850 q 631 1006 565 935 q 790 1094 693 1076 l 790 1078 q 790 1068 790 1074 q 792 1053 790 1063 q 721 893 792 964 q 583 824 651 824 l 578 824 l 574 824 m 903 367 q 1021 274 943 307 q 948 132 982 190 q 882 40 914 74 q 743 -24 818 -24 q 654 -1 708 -24 q 571 21 600 21 q 482 -1 539 21 q 396 -24 425 -24 q 353 -17 375 -24 q 308 6 331 -10 q 265 43 286 21 q 221 96 244 65 q 160 193 186 143 q 114 296 133 243 q 76 500 76 401 q 161 742 75 646 q 381 836 247 836 q 486 813 429 836 q 569 789 546 789 q 651 813 594 789 q 707 830 682 824 q 756 836 732 836 q 890 810 832 836 q 999 725 950 782 q 896 626 931 682 q 863 503 863 572 q 903 367 861 428 z "}," ":{"ha":403,"x_min":0,"x_max":0,"o":""},"∕":{"ha":315,"x_min":-171,"x_max":486,"o":"m -171 0 l 393 1001 l 486 1001 l -75 0 l -171 0 z "},"€":{"ha":968,"x_min":57,"x_max":911,"o":"m 57 382 l 94 471 l 165 471 l 165 485 q 165 508 165 496 q 167 532 165 521 l 57 532 l 94 621 l 175 621 q 222 788 189 714 q 304 915 256 863 q 417 994 353 967 q 558 1022 482 1022 q 713 988 642 1022 q 828 892 783 954 q 876 804 858 851 q 901 692 893 757 l 771 679 q 704 858 757 797 q 564 919 651 919 q 403 841 467 919 q 321 621 340 763 l 678 621 l 640 532 l 314 532 q 313 513 313 522 q 313 493 313 503 l 313 471 l 615 471 l 578 382 l 319 382 q 397 165 336 239 q 558 90 458 90 q 776 332 735 90 l 911 310 q 791 63 881 146 q 556 -19 701 -19 q 292 85 392 -19 q 171 382 193 190 l 57 382 z "},"":{"ha":276,"x_min":61,"x_max":285,"o":"m 61 1113 l 164 1328 l 285 1328 l 185 1113 l 61 1113 z "},"":{"ha":290,"x_min":3,"x_max":226,"o":"m 3 1329 l 126 1329 l 226 1114 l 104 1114 l 3 1329 z "},"":{"ha":317,"x_min":-25,"x_max":344,"o":"m -25 976 l -25 1138 l 103 1138 l 103 976 l -25 976 m 218 976 l 218 1138 l 344 1138 l 344 976 l 218 976 z "},"":{"ha":419,"x_min":0,"x_max":419,"o":"m 0 1113 l 99 1328 l 318 1328 l 419 1113 l 311 1113 l 211 1313 l 113 1113 l 0 1113 z "},"":{"ha":419,"x_min":0,"x_max":419,"o":"m 0 1329 l 113 1329 l 211 1128 l 311 1328 l 419 1328 l 318 1114 l 99 1114 l 0 1329 z "},"":{"ha":419,"x_min":7,"x_max":413,"o":"m 7 960 l 7 1060 l 413 1060 l 413 960 l 7 960 z "},"":{"ha":401,"x_min":4,"x_max":393,"o":"m 4 1125 l 85 1125 q 133 1053 108 1072 q 197 1033 157 1033 q 267 1053 242 1033 q 317 1125 292 1072 l 393 1125 q 378 1068 386 1093 q 358 1024 369 1043 q 294 964 339 988 q 199 940 249 940 q 117 957 154 940 q 74 981 92 968 q 44 1014 57 994 q 22 1060 31 1033 q 4 1125 13 1088 z "},"":{"ha":128,"x_min":0,"x_max":128,"o":"m 0 946 l 0 1128 l 128 1128 l 128 946 l 0 946 z "},"":{"ha":346,"x_min":43,"x_max":301,"o":"m 43 1042 q 81 1129 43 1093 q 172 1165 118 1165 q 222 1156 199 1165 q 263 1129 246 1146 q 291 1090 281 1113 q 301 1042 301 1068 q 291 994 301 1017 q 263 954 281 971 q 222 928 246 938 q 172 918 199 918 q 81 954 118 918 q 43 1042 43 990 m 171 1104 q 124 1086 143 1104 q 106 1042 106 1068 q 125 999 106 1018 q 172 981 144 981 q 219 999 200 981 q 239 1042 239 1017 q 219 1086 239 1068 q 171 1104 199 1104 z "},"":{"ha":425,"x_min":0,"x_max":425,"o":"m 0 1114 q 42 1208 7 1176 q 136 1240 76 1240 q 172 1236 153 1240 q 226 1221 190 1232 q 313 1203 289 1203 q 347 1211 333 1203 q 369 1240 360 1219 l 425 1240 q 296 1114 404 1114 q 273 1115 285 1114 q 245 1119 261 1117 q 207 1128 229 1122 q 153 1143 185 1135 q 111 1150 125 1150 q 58 1114 75 1150 l 0 1114 z "},"":{"ha":276,"x_min":61,"x_max":285,"o":"m 61 942 l 164 1157 l 285 1157 l 185 942 l 61 942 z "},"":{"ha":335,"x_min":-25,"x_max":363,"o":"m -25 833 l -25 1015 l 96 1015 l 96 833 l -25 833 m 240 833 l 240 1015 l 363 1015 l 363 833 l 240 833 z "},"":{"ha":335,"x_min":-25,"x_max":363,"o":"m -25 1113 l -25 1294 l 96 1294 l 96 1113 l -25 1113 m 240 1113 l 240 1294 l 363 1294 l 363 1113 l 240 1113 z "},"#":{"ha":878,"x_min":65,"x_max":747,"o":"m 65 311 l 81 381 l 240 381 l 290 619 l 131 619 l 144 689 l 306 689 l 367 981 l 436 981 l 374 689 l 519 689 l 581 981 l 649 981 l 588 689 l 747 689 l 733 619 l 574 619 l 522 381 l 682 381 l 668 311 l 508 311 l 446 19 l 378 19 l 439 311 l 294 311 l 232 19 l 164 19 l 225 311 l 65 311 m 308 381 l 454 381 l 504 619 l 360 619 l 308 381 z "},"¤":{"ha":688,"x_min":65,"x_max":571,"o":"m 65 296 l 151 381 q 111 501 111 435 q 150 622 111 568 l 67 703 q 110 751 83 728 l 196 665 q 317 706 250 706 q 439 667 385 707 l 524 753 q 544 736 535 744 q 561 717 553 728 q 566 710 564 714 q 571 703 568 707 l 485 622 q 524 501 525 568 q 483 379 524 433 l 569 293 l 560 282 l 549 272 q 535 260 542 265 q 522 249 529 254 l 439 335 q 381 304 411 314 q 318 294 350 294 q 255 304 286 294 q 197 335 224 314 l 110 250 q 86 272 97 260 q 65 296 75 283 m 179 500 q 219 402 179 442 q 318 363 260 363 q 415 403 375 363 q 446 449 436 424 q 456 500 456 474 q 446 551 456 526 q 415 597 436 576 q 318 638 375 638 q 219 598 260 638 q 179 500 179 558 z "},"‡":{"ha":881,"x_min":43,"x_max":836,"o":"m 43 85 l 43 211 l 369 210 l 369 556 l 44 556 l 47 682 l 372 681 l 372 994 l 507 994 l 508 681 l 836 681 l 835 556 l 511 556 l 511 210 l 833 210 l 833 82 l 506 85 l 506 -249 l 369 -249 l 371 85 l 43 85 z "},"":{"ha":968,"x_min":57,"x_max":911,"o":"m 901 692 l 771 679 q 704 858 757 797 q 564 919 651 919 q 458 890 506 919 q 379 806 411 861 q 330 672 347 750 q 313 493 313 593 q 376 194 313 297 q 558 90 440 90 q 776 332 735 90 l 911 310 q 791 63 881 146 q 556 -19 701 -19 q 391 15 464 -19 q 268 114 318 49 q 192 272 218 179 q 165 485 165 365 q 193 706 165 607 q 272 876 221 806 q 396 984 324 946 q 558 1022 468 1022 q 713 988 642 1022 q 828 892 783 954 q 876 804 858 851 q 901 692 893 757 m 57 532 l 94 621 l 678 621 l 640 532 l 57 532 m 57 382 l 94 471 l 615 471 l 578 382 l 57 382 z "},"":{"ha":592,"x_min":33,"x_max":536,"o":"m 33 888 l 258 1000 l 364 1000 l 364 108 l 536 108 l 535 0 l 58 1 l 61 107 l 232 107 l 232 868 l 64 792 l 33 888 z "},"!":{"ha":278,"x_min":76,"x_max":224,"o":"m 82 0 l 82 174 l 221 174 l 221 0 l 82 0 m 76 1001 l 224 1001 l 197 251 l 106 251 l 76 1001 z "},"\"":{"ha":446,"x_min":44,"x_max":396,"o":"m 44 608 l 97 829 l 56 829 l 56 1001 l 196 1001 l 196 833 l 89 608 l 44 608 m 246 608 l 299 829 l 257 829 l 257 1001 l 396 1001 l 396 833 l 290 608 l 246 608 z "}}}
